<?xml version="1.0" encoding="utf-8"?>
<!-- Generator: Adobe Illustrator 26.2.1, SVG Export Plug-In . SVG Version: 6.00 Build 0)  -->
<svg version="1.1" id="Layer_1" xmlns="http://www.w3.org/2000/svg" xmlns:xlink="http://www.w3.org/1999/xlink" x="0px" y="0px"
	 viewBox="0 0 1010.8 1022.7" style="enable-background:new 0 0 1010.8 1022.7;" xml:space="preserve">
<style type="text/css">
	.st0{fill:#FFFFFF;}
</style>
<g>
	<g id="Layer_1-2">
		<path class="st0" d="M776.9,691.1l-4.8,29.8l0,0l-136.7,63.8l0,0c-14.6-52.1-61.3-88.7-115.4-90.4h-10.1
			c-32.7-3.7-64.5,12.4-80.8,40.9c-9.5,40-6.7,81.8,8,120.2c10.1,34,22.5,67.2,37.2,99.4c18.9,2.5,37.9,3.9,56.9,4.3
			c199.4,0.3,371-140.9,408.9-336.6c-5.5,5.5-11.3,10.7-17.5,15.4C880.5,669.9,829.7,688.5,776.9,691.1z"/>
		<path class="st0" d="M670.5,226.3l79.8,59l0,0L770,385.8l176,131.9c-8.2-147.7-94-280-225.5-347.8
			C697.6,182,679.8,202,670.5,226.3z"/>
		<path class="st0" d="M720.5,169.9"/>
		<path class="st0" d="M530.7,648.5c-10.5-2.2-21.2-3.4-31.9-3.7L530.7,648.5z"/>
		<path class="st0" d="M452,560.8c94.5,21.3,185.1,57.2,268.6,106.4l13.8-5.8c-37.7-30.5-70.6-66.3-97.8-106.4
			c-14.4-12.8-50-98.4-130.3-44.7l0,0l69.1,31.9l-5.3,10.6l44.7,20.7l-4.8,9l26.1,19.1l-39.4-21.8v-8l-46.8-20.7l6.4-9l-59.6-25.5
			C480.3,529.8,465.4,544.6,452,560.8z"/>
		<path class="st0" d="M676.9,379.4H687c10.6,0.3,20.5-5.5,25.5-14.9c-2.9-4.1-6.1-8-9.6-11.7c-24.5,4.3-33.5-14.4-36.2-34.6
			c-13.3-11.2-29.8-24.5-53.2-39.9l-12.2-9.6l4.8,14.9C609.4,286.9,637.6,367.7,676.9,379.4z"/>
		<path class="st0" d="M383.9,140.1C186.1,166.7,103.7,276.3,87.7,298.1h88.8v3.7c0,0-115.4,162.2-111.7,255.8l53.2-15.4l0,0
			c-0.7-95.4,31.4-188.2,90.9-262.7l-22.9-3.2h1.1c27.3-34.7,64.3-60.5,106.4-73.9c62.7-43.8,136.3-69.6,212.7-74.5
			c36.6-14.2,69.6-36.1,96.8-64.3C537.7,107.4,462.3,133.8,383.9,140.1z"/>
		<path class="st0" d="M363.7,175.2c48-13.8,95.2-30.1,141.5-48.9c-76.4,4.8-150,30.6-212.7,74.5C315.7,191,339.5,182.4,363.7,175.2
			z"/>
		<path class="st0" d="M118,542.2h11.7l0,0c7.9,48.3,21.8,95.5,41.5,140.4c19.3,44.4,45.5,85.5,77.6,121.8
			c39.1,42.9,88.3,75.4,143.1,94.7C324,857.2,267.1,799.8,226,731.5c-35.1-73.7-51.4-155.1-47.3-236.6L118,506v-3.2
			c21.4-83.7,65.6-159.9,127.6-220.2l-36.7-3.2C149.4,354,117.3,446.8,118,542.2z"/>
		<path class="st0" d="M584.4,247"/>
		<path class="st0" d="M721.1,302.9c20.7,228.1-163.8,34.6-136.7-56.4c-11.7,0-84.6,0-198.4,85.1l31.4,23.4c0,0-68.6,43.1-116.5,201
			l29.8,12.2c-15.4,97.3,13.9,196.4,79.8,269.6c-112.2-221.2,171.8-212.7,236.6-100l91.5-43.1v-17l-11.2,6.4
			c0,0-223.9-103.7-310-106.4c0,0,122.3-212.7,237.7-29.2c75,106.4,94.7,152.6,241.4,64.9c0,0-53.2-25-50-64.9l70.2,18.1l21.3-12.2
			L738.6,400.7L721.1,302.9z M530.7,648.5h-31.9c10.7,0.3,21.4,1.6,31.9,3.7c57.7,5.7,114,20.6,167,44.1l0,0L653,714.5
			c-33.8-32.2-76.4-53.8-122.3-62.2l-31.9-3.7c10.7,0.3,21.4,1.6,31.9,3.7h7.4L530.7,648.5z"/>
		<path class="st0" d="M530.7,651.2c-10.5-2.2-21.2-3.4-31.9-3.7L530.7,651.2z"/>
	</g>
</g>
</svg>
