<?xml version="1.0" encoding="utf-8"?>
<!-- Generator: Adobe Illustrator 26.2.1, SVG Export Plug-In . SVG Version: 6.00 Build 0)  -->
<svg version="1.1" id="Layer_1" xmlns="http://www.w3.org/2000/svg" xmlns:xlink="http://www.w3.org/1999/xlink" x="0px" y="0px"
	 viewBox="0 0 1000 1000" style="enable-background:new 0 0 1000 1000;" xml:space="preserve">
<style type="text/css">
	.st0{fill:#FFFFFF;}
</style>
<g>
	<g>
		<path class="st0" d="M500,187.6c5.3,0,9.5-4.3,9.5-9.5V37.9c0-5.3-4.3-9.5-9.5-9.5c-5.3,0-9.5,4.3-9.5,9.5v140.1
			C490.5,183.3,494.7,187.6,500,187.6z"/>
		<path class="st0" d="M391.5,196.7c1.6,5,7,7.7,12,6.1c5-1.6,7.7-7,6.1-12l-27.9-85.8c-1.6-5-7-7.7-12-6.1c-5,1.6-7.7,7-6.1,12
			L391.5,196.7z"/>
		<path class="st0" d="M303.1,245.1c3.1,4.2,9,5.2,13.3,2.1c4.2-3.1,5.2-9,2.1-13.3l-82.4-113.4c-3.1-4.2-9-5.2-13.3-2.1
			c-4.2,3.1-5.2,9-2.1,13.3L303.1,245.1z"/>
		<path class="st0" d="M177.3,277.3l56.7,41.2c4.2,3.1,10.2,2.1,13.3-2.1c3.1-4.2,2.1-10.2-2.1-13.3l-56.7-41.2
			c-4.2-3.1-10.2-2.1-13.3,2.1C172.1,268.2,173,274.2,177.3,277.3z"/>
		<path class="st0" d="M57.6,366.3l133.3,43.3c5,1.6,10.4-1.1,12-6.1c1.6-5-1.1-10.4-6.1-12L63.5,348.2c-5-1.6-10.4,1.1-12,6.1
			C49.9,359.3,52.6,364.6,57.6,366.3z"/>
		<path class="st0" d="M109.3,490.5c-5.3,0-9.5,4.3-9.5,9.5c0,5.3,4.3,9.5,9.5,9.5h68.7c5.3,0,9.5-4.3,9.5-9.5
			c0-5.3-4.3-9.5-9.5-9.5H109.3z"/>
		<path class="st0" d="M63.5,651.8l133.3-43.3c5-1.6,7.7-7,6.1-12c-1.6-5-7-7.7-12-6.1L57.6,633.7c-5,1.6-7.7,7-6.1,12
			C53.1,650.7,58.5,653.4,63.5,651.8z"/>
		<path class="st0" d="M170.4,739.5c3.1,4.2,9,5.2,13.3,2.1l61.5-44.7c4.2-3.1,5.2-9,2.1-13.3c-3.1-4.3-9-5.2-13.3-2.1l-61.5,44.7
			C168.2,729.3,167.3,735.2,170.4,739.5z"/>
		<path class="st0" d="M303.1,754.9l-82.4,113.4c-3.1,4.2-2.1,10.2,2.1,13.3c4.2,3.1,10.2,2.1,13.3-2.1L318.5,766
			c3.1-4.2,2.1-10.2-2.1-13.3C312.1,749.7,306.2,750.6,303.1,754.9z"/>
		<path class="st0" d="M391.5,803.3l-21.7,67.6c-1.6,5,1.2,10.4,6.2,12c5,1.6,10.4-1.2,12-6.2l21.7-67.6c1.6-5-1.2-10.4-6.2-12
			C398.4,795.5,393.1,798.3,391.5,803.3z"/>
		<path class="st0" d="M490.5,821.9l0,140.1c0,5.3,4.3,9.5,9.5,9.5c5.3,0,9.5-4.3,9.5-9.5l0-140.1c0-5.3-4.3-9.5-9.5-9.5
			C494.7,812.4,490.5,816.7,490.5,821.9z"/>
		<path class="st0" d="M596.5,797.1c-5,1.6-7.7,7-6.1,12l21.6,66.6c1.6,5,7,7.7,12,6.1c5-1.6,7.7-7,6.1-12l-21.6-66.6
			C606.9,798.3,601.5,795.5,596.5,797.1z"/>
		<path class="st0" d="M683.6,752.8c-4.3,3.1-5.2,9-2.1,13.3l82.4,113.4c3.1,4.3,9,5.2,13.3,2.1c4.3-3.1,5.2-9,2.1-13.3l-82.4-113.4
			C693.8,750.6,687.9,749.7,683.6,752.8z"/>
		<path class="st0" d="M813.9,728.1c3.1-4.2,2.1-10.2-2.1-13.3l-45.7-33.2c-4.2-3.1-10.2-2.1-13.3,2.1c-3.1,4.2-2.1,10.2,2.1,13.3
			l45.7,33.2C804.8,733.2,810.8,732.3,813.9,728.1z"/>
		<path class="st0" d="M948.5,645.7c1.6-5-1.1-10.4-6.1-12l-133.3-43.3c-5-1.6-10.4,1.1-12,6.1c-1.6,5,1.1,10.4,6.1,12l133.3,43.3
			C941.5,653.5,946.9,650.7,948.5,645.7z"/>
		<path class="st0" d="M892.2,509.5c5.3,0,9.5-4.3,9.5-9.5c0-5.3-4.3-9.5-9.5-9.5l-70.2,0c-5.3,0-9.5,4.3-9.5,9.5
			c0,5.3,4.3,9.5,9.5,9.5L892.2,509.5z"/>
		<path class="st0" d="M797.1,403.5c1.6,5,7,7.7,12,6.1l133.3-43.3c5-1.6,7.7-7,6.1-12c-1.6-5-7-7.7-12-6.1l-133.3,43.3
			C798.3,393.1,795.5,398.5,797.1,403.5z"/>
		<path class="st0" d="M752.8,316.4c3.1,4.2,9,5.2,13.3,2.1l61.5-44.7c4.2-3.1,5.2-9,2.1-13.3c-3.1-4.2-9-5.2-13.3-2.1l-61.5,44.7
			C750.6,306.2,749.7,312.1,752.8,316.4z"/>
		<path class="st0" d="M683.6,247.2c4.2,3.1,10.2,2.1,13.3-2.1l82.4-113.4c3.1-4.2,2.1-10.2-2.1-13.3c-4.2-3.1-10.2-2.1-13.3,2.1
			l-82.4,113.4C678.5,238.2,679.4,244.1,683.6,247.2z"/>
		<path class="st0" d="M596.5,202.9c5,1.6,10.4-1.1,12-6.1l24.3-74.9c1.6-5-1.1-10.4-6.1-12c-5-1.6-10.4,1.1-12,6.1l-24.3,74.9
			C588.8,195.9,591.6,201.2,596.5,202.9z"/>
	</g>
	<g>
		<path class="st0" d="M500,258.9c-66.6,0-126.9,27-170.5,70.6c-43.7,43.7-70.6,103.9-70.6,170.5c0,66.6,27,126.8,70.6,170.5
			c43.7,43.7,103.9,70.6,170.5,70.6c66.6,0,126.8-27,170.5-70.6c43.7-43.7,70.6-103.9,70.6-170.5c0-66.6-27-126.8-70.6-170.5
			C626.8,285.8,566.6,258.9,500,258.9z"/>
	</g>
</g>
</svg>
