<?xml version="1.0" encoding="UTF-8"?><svg id="a" xmlns="http://www.w3.org/2000/svg" viewBox="0 0 483.88 747"><defs><style>.b{fill:#fff;}.c{fill:#2fa0a6;}.d{fill:#c7e286;}.e{fill:#37a0a5;}.f{fill:#606060;}.g{stroke-width:3.77px;}.g,.h{fill:none;stroke:#000;stroke-miterlimit:10;}.h{stroke-width:4.09px;}.i{fill:#231916;}.i,.j,.k{fill-rule:evenodd;}.j{fill:#f15647;}</style></defs><path class="f" d="M424.16,575.9c-3.16-4.88-10.05-8.13-19.66-7.74-14.42,12.13-30.38,22.49-47.51,30.8L115.86,214.55c13.02-10.33,27.17-19.3,42.27-26.62,2.19-6.68,2.37-13.3-.23-18.26-2.19-4.18-6.26-7.09-11.34-8.77C59.88,202.39,0,290.91,0,393.43c0,142.29,115.35,257.65,257.65,257.65,65.25,0,124.79-24.3,170.18-64.29-.22-4.33-1.81-8.03-3.66-10.89m-166.52,45.81c-126.08,0-228.28-102.21-228.28-228.28,0-61.56,24.39-117.41,64.01-158.47l235.47,375.39c-22.4,7.36-46.32,11.36-71.19,11.36"/><path class="f" d="M408.16,726.92s-66.78-49.1-159.08-47.14c-92.31,1.96-143.37,37.32-143.37,37.32,0,0,23.57,25.53,159.08,29.46,135.52,3.93,143.37-19.64,143.37-19.64"/><rect class="f" x="239.26" y="638.54" width="33.39" height="54.99"/><path class="e" d="M453.81,393.43c0-108.34-87.82-196.16-196.16-196.16S61.49,285.09,61.49,393.43s87.82,196.16,196.16,196.16,196.16-87.82,196.16-196.16"/><path class="d" d="M453.81,393.43c0-79.94-47.85-148.67-116.45-179.23-7.21,19.66-9.65,40.21,3.12,52.98,30.77,30.77,71.79,16.41,73.84,65.64,2.05,49.23-12.31,47.18,4.1,84.1,11.1,24.98,14.67,48.09,11.38,70.58,15.29-27.93,24-59.98,24-94.06"/><path class="d" d="M354.84,533.82c16.41-10.26,0-51.28-6.15-61.53-6.15-10.26,2.05-24.61,8.21-47.18,6.15-22.56-6.15-63.59-41.02-67.69-34.87-4.1-53.33,18.46-73.84,41.02-20.51,22.56-36.92,32.82-53.33,36.92-16.41,4.1-38.97,34.87,0,43.07,38.97,8.21,77.95-10.25,100.51,10.26,22.56,20.51,28.72,28.72,36.92,38.97,8.2,10.26,28.72,6.15,28.72,6.15"/><path class="d" d="M270.74,293.84c-22.56-12.31-6.15-16.41-45.13-32.82-38.97-16.41-57.43,12.31-90.25,14.36-12.36,.77-22.09-2.24-29.44-6.29-23.42,28.54-38.91,63.81-43.2,102.47,1.64-.6,3.25-1.18,4.95-1.83,43.08-16.41,32.82,57.43,75.89,57.43s-4.1-47.18,47.18-45.13c51.28,2.05,36.92-24.61,49.23-41.02,12.31-16.41,53.33,16.41,67.69-10.26,14.36-26.66-14.36-24.61-36.92-36.92"/><path class="d" d="M151.78,507.16c-45.13-20.51-38.97-26.66-53.33-47.18-5.48-7.83-16.05-9.07-27.59-6.6,18.89,58.91,64.86,105.64,123.27,125.63,.3-.72,.55-1.43,.73-2.11,4.1-16.41,2.05-49.23-43.08-69.74"/><path class="b" d="M377.62,77.49c63.69-19.34,95.34,67.88,101.6,99.6,6.26,31.73,5.14,94.7-37.86,107.93-42.99,13.22-87.89-29.38-103.06-87.58-25.98-99.62,39.32-119.95,39.32-119.95"/><path class="g" d="M377.62,77.49c63.69-19.34,95.34,67.88,101.6,99.6,6.26,31.73,5.14,94.7-37.86,107.93-42.99,13.22-87.89-29.38-103.06-87.58-25.98-99.62,39.32-119.95,39.32-119.95Z"/><path class="c" d="M433.76,135.94c1.56,14.73-2.53,44.74-26.09,53.41-14.9,5.48-28.95,.37-38.5-10.9,11.48,24.02,32.23,39.35,52.27,33.18,24.3-7.47,24.93-43.07,21.4-61-1.77-8.96-7.11-25.73-16.51-38.93,4.58,8.8,6.81,18.44,7.43,24.23"/><path d="M386.46,96.94s-10.56,4.37-18.53,15.78c7.11-1.61,14.76,1.27,18.81,7.82,5.1,8.25,2.54,19.06-5.71,24.16-7.12,4.4-16.13,3.07-21.75-2.66,.02,4.59,.54,9.59,1.72,15.04,5.76,26.64,27.84,43.65,51.08,34.16,23.24-9.49,26.28-39.62,24.2-54.29-2.08-14.67-15.42-53.94-49.84-40.01"/><path class="b" d="M292.56,85.21c69.74,18.46,49.23,116.92,36.92,149.74-12.31,32.82-49.23,90.25-96.4,77.94-47.18-12.31-64.3-77.17-45.13-139.48,32.82-106.66,104.61-88.2,104.61-88.2"/><path class="h" d="M292.56,85.21c69.74,18.46,49.23,116.92,36.92,149.74-12.31,32.82-49.23,90.25-96.4,77.94-47.18-12.31-64.3-77.17-45.13-139.48,32.82-106.66,104.61-88.2,104.61-88.2Z"/><path class="c" d="M311.02,171.1c-6.96,14.48-27.82,39.81-54.49,34.38-16.86-3.43-26.91-16.15-29.29-31.99-3.1,28.68,7.29,54.64,29.29,60.38,26.66,6.96,47.53-25.5,54.49-44.05,3.47-9.26,8.1-27.78,6.96-45.3-.79,10.73-4.23,20.89-6.96,26.57"/><path d="M289.63,108.19s-12.23-1.99-26.07,3.99c7.48,2.57,12.89,9.58,12.89,17.93,0,10.51-8.52,19.03-19.03,19.03-9.07,0-16.63-6.36-18.53-14.85-2.59,4.25-4.96,9.15-6.98,14.85-9.87,27.85,.8,56.11,27.64,60.6,26.84,4.5,46.81-21.55,53.26-36.26,6.45-14.71,16.52-58.53-23.16-65.29"/><path class="k" d="M279.73,38.07c4.11-33.92-98.7-29.55-131.35,60.09-1.58,4.55,1.16,9.61,6.21,10.53,8,1.5,8.64-1.19,11.48-5.11,22.22-48.66,79.84-53.61,97.01-53.98,8.95,1.16,15.69-3.74,16.64-11.53"/><path class="k" d="M469.32,32.5c14.93-30.73-83.7-60.07-143.76,14.06-2.88,3.83-2.04,9.47,2.45,11.98,7.08,4.03,8.55,1.69,12.52-1.09,36.86-38.78,92.94-24.7,109.4-19.42,7.99,3.97,15.96,1.54,19.39-5.52"/><path class="i" d="M389.79,386.63c-34.84,22.16-46.45,27.36-77.85,29.42-118.4,4.73-149.89-55.42-149.98-55.6l-4.06,3.42c.09,.2,32.34,62.41,154.73,57.47l.26-.02c.17-.01,42.53-7.92,80.55-29.64,.87-.5,1.16-8.11-3.65-5.05"/><path class="k" d="M312.46,418.22s41.03-4.51,75.81-26.87c-8.93,28.28-24.55,68.87-12.4,96.84-213.03,70.84-216.59-126.22-216.59-126.22,0,0,32.79,61.13,153.18,56.25"/><path class="k" d="M180.96,342.11c-.69-3.9-3.47-5.12-7.11-4.81-6.51,1.89-33.31,16.22-36,45.89,0,2.12,1.73,3.97,3.82,3.75,3.3-.3,3.21-1.5,3.73-3.51,2.34-23.4,24.03-32.27,30.62-34.46,3.64-.54,5.55-3.43,4.94-6.85"/><path class="k" d="M361.97,371.51c.69-3.9,3.47-5.12,7.11-4.81,6.51,1.86,33.31,16.22,35.91,45.89,.09,2.12-1.65,3.95-3.73,3.77-3.3-.3-3.21-1.54-3.82-3.54-2.25-23.4-23.94-32.27-30.53-34.46-3.64-.54-5.55-3.43-4.94-6.85"/><path class="k" d="M379.63,489.99c-8.41-23.85,.31-62.81,8.72-88.64,1.04-3.36,2.17-6.61,2.86-9.06l.51-5.27-5.2,1.69c-33.48,21.53-55.85,25.22-74.34,26.39-118.4,4.73-150.14-54.47-150.23-54.65l-6.25-11.19,.44,12.79c0,.56,3.56,199.69,218.15,129.89,1.02-.27,5.55-2.07,5.33-1.96m-216.45-117.3c14.74,17.24,56.55,52.41,149.45,48.66l.26-.02c.09,0,36.26-3.99,69.83-22.98l-.35,1.06c-8.67,26.8-19.78,60.98-10.67,86.82-176.08,56.92-204.1-74.14-208.52-113.54"/><path class="j" d="M203.34,465.9c-1.89-62.96,46.15-32.86,70.07-15.1,8.88,7.52,15.72,12.3,15.72,12.3,3.21,1.95,8.2,6.15,8.2,6.15-.09-4.64-9.67-17.19-14.35-21.18,12.98-25.97,87.47-15.03,88.73,38.15-87.78,28.36-138.7,10.06-168.36-20.32"/></svg>