<?xml version="1.0" encoding="UTF-8"?><svg id="a" xmlns="http://www.w3.org/2000/svg" viewBox="0 0 871.6 869.86"><defs><style>.b{fill:#fff;}</style></defs><path class="b" d="M799.8,674.88h-132.29c-26.23,76.43-64.59,138.78-110.48,179.02,100.58-29.15,186.28-93.61,242.77-179.02Z"/><path class="b" d="M452.21,869.86c53.84-7.11,105.1-48.9,145.8-119.68,13.27-23.08,24.82-48.36,34.7-75.3h-180.5v194.98Z"/><path class="b" d="M871.6,451.34h-166.33c-1.35,68.29-11.09,132.86-27.5,190.71h141.76c30.96-57.13,49.5-121.91,52.06-190.71Z"/><path class="b" d="M819.52,227.8h-141.75c16.41,57.85,26.14,122.43,27.5,190.71h166.33c-2.56-68.8-21.11-133.59-52.07-190.71Z"/><path class="b" d="M849.05,213.88c-.83-1.55-1.67-3.1-2.52-4.64,.85,1.54,1.69,3.09,2.52,4.64Z"/><path class="b" d="M846.53,660.62c.85-1.54,1.68-3.08,2.52-4.63-.83,1.55-1.67,3.09-2.52,4.63Z"/><path class="b" d="M0,418.51H166.33c1.35-68.29,11.09-132.87,27.5-190.71H52.07C21.11,284.93,2.56,349.71,0,418.51Z"/><path class="b" d="M799.8,194.97c-56.49-85.4-142.19-149.86-242.76-179.01,45.89,40.24,84.25,102.59,110.47,179.01h132.29Z"/><path class="b" d="M452.21,0V194.97h180.5c-9.87-26.93-21.43-52.21-34.7-75.28C557.31,48.9,506.05,7.11,452.21,0Z"/><path class="b" d="M452.21,418.51h220.18c-1.38-67.62-11.24-132.46-28.73-190.71h-191.45v190.71Z"/><path class="b" d="M452.21,642.06h191.46c17.48-58.26,27.34-123.09,28.72-190.71h-220.18v190.71Z"/><path class="b" d="M419.38,227.8H227.93c-17.49,58.26-27.35,123.09-28.73,190.71h220.19V227.8Z"/><path class="b" d="M25.06,209.26c-.84,1.53-1.67,3.06-2.5,4.59,.82-1.54,1.66-3.07,2.5-4.59Z"/><path class="b" d="M419.38,0c-53.84,7.11-105.1,48.89-145.8,119.69-13.26,23.07-24.82,48.35-34.7,75.28h180.5V0Z"/><path class="b" d="M22.56,656.01c.82,1.54,1.65,3.06,2.49,4.58-.84-1.52-1.67-3.05-2.49-4.58Z"/><path class="b" d="M419.38,451.34H199.2c1.38,67.62,11.24,132.45,28.73,190.71h191.46v-190.71Z"/><path class="b" d="M52.06,642.06H193.82c-16.4-57.85-26.15-122.43-27.49-190.71H0c2.56,68.8,21.1,133.59,52.06,190.71Z"/><path class="b" d="M314.56,853.9c-45.88-40.24-84.25-102.59-110.47-179.02H71.79c56.49,85.41,142.19,149.88,242.76,179.02Z"/><path class="b" d="M314.56,15.96c-100.57,29.15-186.27,93.61-242.76,179.01H204.09c26.22-76.42,64.58-138.77,110.47-179.01Z"/><path class="b" d="M419.38,869.86v-194.98H238.88c9.88,26.94,21.44,52.22,34.7,75.3,40.71,70.79,91.96,112.58,145.8,119.68Z"/></svg>