<?xml version="1.0" encoding="UTF-8"?><svg xmlns="http://www.w3.org/2000/svg" viewBox="0 0 500 500"><g id="First_Gen"><g><path d="M281.14,69.88c73.45,0,62.08,50.17,142.97,26.89-45.79,88.39-96.37,33.96-142.97,82.28V69.88h0Z" fill="#fff"/><polygon points="281.14 208.32 442 430.2 325.32 430.2 120.28 430.2 58 430.2 191.66 245.84 222.8 288.8 281.14 208.32 281.14 208.32" fill="#fff"/></g></g><g id="Alumni"><path d="M444.5,214.71l-194.5-76.79L55.5,214.71l36.8,14.53v110.67l-10.24,22.18h35.5l-15.07-26.71v-102.11l50.23,19.83-4.66-.05v81.63c0,22.84,198.57,22.84,198.57,0v-79.54l-4.42-.05,102.28-40.38Z" fill="#fff"/></g><g id="Research"><path d="M371.09,388.98h-21.69c15.39-23.44,63.08-115.61-67.56-204.24,.18-1.35,.29-2.73,.29-4.12,0-14.57-10.02-27.12-24.51-33.08l16.25-21.2-8.26-4.82,24.77-32.39-39.74-21.01-25.29,32.39-12.9-5.69-90.32,119.94,8.77,5.25-10.32,13.57,38.19,22.76,10.84-13.57,10.32,6.13,30.84-40.24c7.56,5.43,17.32,8.72,28,8.72,6.84,0,13.29-1.38,19.04-3.78,25.1,27.46,89.66,112.74-8.33,175.37h-80.58c-4.58,0-8.32,3.18-8.32,7.06v28.78c0,3.88,3.74,7.06,8.32,7.06h202.18c4.58,0,8.32-3.18,8.32-7.06v-28.78c0-3.88-3.74-7.06-8.32-7.06ZM238.77,192.27c-7.59,0-13.74-5.22-13.74-11.65s6.15-11.65,13.74-11.65,13.74,5.22,13.74,11.65-6.15,11.65-13.74,11.65Z" fill="#fff"/></g><g id="International"><g><path d="M399.94,348.84h-54.49c-10.8,31.48-26.61,57.17-45.51,73.74,41.43-12.01,76.73-38.56,100-73.74Z" fill="#fff"/><path d="M256.76,429.15c22.18-2.93,43.29-20.14,60.06-49.3,5.46-9.5,10.22-19.92,14.29-31.01h-74.35v80.31Z" fill="#fff"/><path d="M429.51,256.76h-68.51c-.56,28.13-4.57,54.73-11.33,78.56h58.39c12.75-23.53,20.39-50.22,21.44-78.56Z" fill="#fff"/><path d="M408.06,164.68h-58.39c6.76,23.83,10.77,50.43,11.33,78.56h68.51c-1.05-28.34-8.7-55.02-21.45-78.56Z" fill="#fff"/><path d="M70.49,243.24h68.51c.56-28.13,4.57-54.73,11.33-78.56h-58.39c-12.75,23.53-20.39,50.22-21.45,78.56Z" fill="#fff"/><path d="M399.93,151.16c-23.27-35.18-58.57-61.73-100-73.74,18.9,16.57,34.7,42.26,45.5,73.74h54.49Z" fill="#fff"/><path d="M256.76,70.85v80.31h74.35c-4.07-11.09-8.83-21.51-14.29-31.01-16.77-29.16-37.88-46.37-60.06-49.3Z" fill="#fff"/><path d="M256.76,243.24h90.69c-.57-27.85-4.63-54.56-11.83-78.56h-78.86v78.56Z" fill="#fff"/><path d="M256.76,335.32h78.86c7.2-24,11.26-50.7,11.83-78.56h-90.69v78.56Z" fill="#fff"/><path d="M243.24,164.68h-78.86c-7.2,24-11.27,50.7-11.83,78.56h90.7v-78.56Z" fill="#fff"/><path d="M243.24,70.85c-22.18,2.93-43.29,20.14-60.06,49.3-5.46,9.5-10.22,19.92-14.29,31.01h74.35V70.85Z" fill="#fff"/><path d="M243.24,256.76h-90.7c.57,27.85,4.63,54.56,11.83,78.56h78.86v-78.56Z" fill="#fff"/><path d="M91.94,335.32h58.39c-6.76-23.83-10.77-50.43-11.33-78.56H70.49c1.05,28.34,8.69,55.02,21.44,78.56Z" fill="#fff"/><path d="M200.06,422.58c-18.9-16.57-34.7-42.26-45.5-73.74h-54.49c23.27,35.18,58.57,61.73,100,73.74Z" fill="#fff"/><path d="M200.06,77.42c-41.43,12.01-76.72,38.56-99.99,73.74h54.49c10.8-31.48,26.6-57.16,45.5-73.74Z" fill="#fff"/><path d="M243.24,429.15v-80.31h-74.35c4.07,11.1,8.83,21.51,14.29,31.01,16.77,29.16,37.88,46.37,60.06,49.3Z" fill="#fff"/></g></g><g id="CSU_Fort_Collins"><path d="M366.02,253.88c-5.06,3.73-12.7,4.02-16.72,10.11-3.5,5.18-6.1,13.07-7.01,20.22-1.53,13.73-1.41,30.98-10.9,42.38-1.92-6.77,3.01-21.92,3.23-41.47,.13-7.28,2.74-15.55,7.15-21.01-7.88-.66-8.16,.38-8.83-2.08-.66-2.47,.79-5.18,2.59-7.38,5.84-6.61,14.02-3.1,21.14-5.44,4.78-1.7,12.19-4.16,12.74-10.88,.22-4.53-14.04-5.6-14.04-5.6-11.41,.91-10.24,7.39-18.14,8.03-6.46,.51-9.07-6.33-11.13-10.5-3.14-6.61-6.77-20.74,6.33-18.66,6.99,1.15,8.33,11.3,3.01,17.38,4.91-.51,12.03-7.16,28.89-1.84,5.8,1.84,12.43,4.18,13.34,11.68,.62,5.57-6.88,11.53-11.66,15.04m-158.79,84.48c-9.69-14.09-17.47-29.13-20.84-38.22-5.7-12.18-8.14-31.47-7.78-44.58,.89-6.33,2.34-14.37,8.16-17.74,3.61-1.95,8.56-2.88,12.98-1.28,6.61,1.81,8.78,7.87,12.54,13.33,3.8,5.7,10.02,9.71,15.19,11.77,3.23,7.54-2.34,25.28-7.63,33.46-2.88,6.08-15.3,20.85-12.61,43.26m1.46-65.8c3.5-14.02-12.28-31.89-18.44-26.32-4.62,4.29-4.91,11.28,.13,14.53,3.1,1.79,9.73,.88,12.34,5.42,3.63,5.97,4.42,6.86,5.97,6.37m61.28,82.54c-6.57,.62-13.82,2.19-19.6,2.06-5.84,.13-13.05-1.44-19.66-2.06-1.04-.11-1.83,.62-1.83,.62-3.81,8.23,18.22,12.72,21.41,12.61,3.18,.11,25.34-4.38,21.52-12.61,0,0-.8-.73-1.84-.62m-100.67-143.47c-6.88,1.15-8.18,11.3-2.99,17.38-4.78-.51-11.94-7.16-28.77-1.84-5.82,1.84-12.47,4.18-13.34,11.68-.66,5.57,6.86,11.53,11.65,15.04,4.93,3.73,12.72,4.02,16.72,10.11,3.36,5.18,6.08,13.07,6.99,20.22,1.57,13.73,1.3,30.98,10.9,42.38,1.79-6.77-3.12-21.92-3.23-41.47-.15-7.28-2.87-15.55-7.12-21.01,7.89-.66,8.01,.38,8.65-2.08,.77-2.47-.77-5.18-2.57-7.38-5.73-6.61-13.85-3.1-21.14-5.44-4.78-1.7-12.16-4.16-12.56-10.88-.27-4.53,14.02-5.6,14.02-5.6,11.39,.91,10.07,7.39,17.96,8.03,6.52,.51,9.24-6.33,11.32-10.5,3.1-6.61,6.72-20.74-6.48-18.66m81.12,71.68h-.25c-6.21,.15-9.53,5.38-15.32,11.43-9.97,10.86-30.46,37.93-15.53,50.76,6.63,5.71,15.3,9.6,27.21,5.95,2.98-2.04,1.3-8.14-.24-10.86-5.6-7.27-14.29-4.42-16.74-8.05-2.35-3.49-.79-6.21,.62-8.01,2.1-2.61,5.48-1.95,8.31-1.19,5.06,1.17,8.51,3.27,11.68,6.37v.26s.07-.09,.09-.13c.05,.04,.13,.09,.16,.13v-.26c3.03-3.1,6.61-5.22,11.65-6.37,2.72-.77,6.22-1.42,8.16,1.19,1.59,1.81,3.01,4.53,.69,8.01-2.5,3.63-11.04,.78-16.63,8.05-1.53,2.72-3.36,8.82-.38,10.86,12.05,3.65,20.61-.24,27.2-5.95,15.04-12.83-5.42-39.9-15.53-50.76-5.6-6.04-9.11-11.28-15.15-11.43m70.88-27.75c.51,13.11-2.08,32.4-7.78,44.58-3.25,9.09-11.02,24.13-20.73,38.22,2.59-22.41-9.71-37.18-12.7-43.26-5.31-8.18-10.9-25.92-7.65-33.46,5.18-2.06,11.41-6.08,15.17-11.77,3.87-5.46,5.97-11.52,12.58-13.33,4.42-1.61,9.33-.67,12.94,1.28,5.86,3.38,7.39,11.41,8.18,17.74m-11.66-9.33c-6.08-5.57-21.89,12.3-18.38,26.32,1.53,.49,2.32-.4,5.95-6.37,2.72-4.54,9.31-3.63,12.3-5.42,5.06-3.25,4.93-10.24,.13-14.53m121.6,3.78c0,99.75-81.39,181.29-181.18,181.29S68.76,349.76,68.76,250.01,150.14,68.7,250.05,68.7s181.18,81.39,181.18,181.31m-17.63,55.55c-4.82,10.75-35.47,55.71-49.17,56.37-13.89,.79,13.71-36.52,32.69-52.09,4.45-3.74,9.8-8.18,10.88-15.19,.79-5.04-1.82-8.43-6.81-8.65-7.59-.29-27.38,9.98-27.62,9.58,34.13-61.55-18.22-92.65,3.54-106.12,7.45-4.82,23.69,0,32.44,1.28-80.75-47.68-94.88-.13-119.23,21.76-3.8,3.52-20.95,0-24.35-4.01-4.33-5.17-12.83-23.84-3.12-36.16,13.65-17.14,67.99-66.32,119.65-29.22-27.64-38.04-82.89-64.96-132.3-63.59h-.15c-25.15-.71-53.04,6.08-78.51,19.15-22.58,11.55-41.51,27.18-54.05,44.45,51.53-37.09,106,12.08,119.54,29.22,9.82,12.32,1.19,30.99-3.14,36.16-3.27,4.01-20.43,7.54-24.21,4.01-24.35-21.89-38.48-69.43-119.25-21.76,8.8-1.28,24.86-6.1,32.47-1.28,21.74,13.47-30.76,44.57,3.5,106.12-.22,.4-20.01-9.87-27.58-9.58-4.98,.22-7.63,3.61-6.81,8.65,1.04,7.01,6.26,11.44,10.86,15.19,18.95,15.57,46.58,52.88,32.58,52.09-13.64-.66-44.26-45.61-49.1-56.37,5.66,18.76,16.77,36.51,28.16,51.95,6.02,8.16,12.96,14.9,21.59,18.03,5.64,2.19,11.39,3.1,16.99,.53,4.34-1.95,7.21-6.39,8.01-11.3,1.04-7.27-3.03-15.83-6.7-21.5-4.8-8.16-15.83-22.4-28.66-31.87-18.2-13.51-30.89-17.25-26.19-20.35,3.3-2.21,20.59,7.27,23.97,9.07,19.24,9.97,46.09,38.88,49.23,60.25,2.17,14.73-12.41,25.83-24.93,25.26,41.44,33.4,86.8,34.52,102.11,34.88h.13c15.17-.35,60.45-1.46,102.05-34.88-12.54,.53-27.09-10.53-24.92-25.26,3.14-21.37,29.86-50.29,49.23-60.25,3.41-1.81,20.66-11.28,23.95-9.07,4.69,3.1-7.98,6.84-26.21,20.35-12.8,9.47-23.91,23.71-28.77,31.87-3.54,5.68-7.58,14.24-6.57,21.5,.82,4.91,3.56,9.35,7.99,11.3,5.62,2.57,11.39,1.66,16.9-.53,8.78-3.14,15.7-9.87,21.7-18.03,11.28-15.44,22.54-33.18,28.15-51.95m-56.27,79.16h0Zm31.82-236.4" fill="#fff"/></g><g id="CSU_Pueblo"><g id="Layer_1-2"><path d="M357.22,320.98l-1.89,11.76h0l-53.97,25.2h0c-5.77-20.57-24.21-35.03-45.57-35.7h-3.99c-12.91-1.47-25.46,4.89-31.92,16.17-3.73,15.78-2.63,32.31,3.15,47.46,3.99,13.41,8.9,26.53,14.7,39.27,7.45,.99,14.95,1.55,22.47,1.68,78.74,.13,146.49-55.63,161.49-132.93-2.16,2.19-4.48,4.23-6.93,6.09-16.62,12.65-36.68,19.98-57.54,21Z" fill="#fff"/><path d="M315.22,137.44l31.5,23.31h0l7.77,39.69,69.51,52.08c-3.25-58.32-37.12-110.57-89.04-137.34-9.08,4.76-16.1,12.68-19.74,22.26Z" fill="#fff"/><path d="M259.99,304.18c-4.15-.85-8.37-1.35-12.6-1.47l12.6,1.47Z" fill="#fff"/><path d="M228.91,269.53c37.31,8.42,73.09,22.59,106.05,42l5.46-2.31c-14.87-12.03-27.89-26.18-38.64-42-5.67-5.04-19.74-38.85-51.45-17.64h0l27.3,12.6-2.1,4.2,17.64,8.19-1.89,3.57,10.29,7.56-15.54-8.61v-3.15l-18.48-8.19,2.52-3.57-23.52-10.08c-6.45,5.2-12.36,11.04-17.64,17.43Z" fill="#fff"/><path d="M317.74,197.92h3.99c4.2,.1,8.1-2.17,10.08-5.88-1.15-1.63-2.41-3.17-3.78-4.62-9.66,1.68-13.23-5.67-14.28-13.65-5.25-4.41-11.76-9.66-21-15.75l-4.83-3.78,1.89,5.88c1.26,1.26,12.39,33.18,27.93,37.8Z" fill="#fff"/><path d="M202.03,103.42c-78.12,10.5-110.67,53.76-116.97,62.37h35.07v1.47s-45.57,64.05-44.1,101.01l21-6.09h0c-.28-37.67,12.39-74.3,35.91-103.74l-9.03-1.26h.42c10.77-13.71,25.4-23.88,42-29.19,24.77-17.32,53.83-27.49,84-29.4,14.44-5.59,27.48-14.26,38.22-25.41-25.78,17.32-55.57,27.73-86.52,30.24Z" fill="#fff"/><path d="M194.05,117.28c18.95-5.44,37.6-11.89,55.86-19.32-30.17,1.91-59.22,12.08-84,29.4,9.19-3.87,18.58-7.24,28.14-10.08Z" fill="#fff"/><path d="M97.03,262.18h4.62c3.12,19.09,8.62,37.72,16.38,55.44,7.61,17.55,17.96,33.78,30.66,48.09,15.45,16.94,34.86,29.78,56.49,37.38-26.81-16.5-49.27-39.19-65.52-66.15-13.88-29.12-20.3-61.23-18.69-93.45l-23.94,4.41v-1.26c8.47-33.07,25.91-63.16,50.4-86.94l-14.49-1.26c-23.52,29.44-36.19,66.06-35.91,103.74Z" fill="#fff"/><path d="M335.17,167.68c8.19,90.09-64.68,13.65-53.97-22.26-4.62,0-33.39,0-78.33,33.6l12.39,9.24s-27.09,17.01-45.99,79.38l11.76,4.83c-6.1,38.42,5.47,77.55,31.5,106.47-44.31-87.36,67.83-84,93.45-39.48l36.12-17.01v-6.72l-4.41,2.52s-88.41-40.95-122.43-42c0,0,48.3-84,93.87-11.55,29.61,42,37.38,60.27,95.34,25.62,0,0-21-9.87-19.74-25.62l27.72,7.14,8.4-4.83-78.75-60.69-6.93-38.64Zm-75.18,136.5h-12.6c4.23,.12,8.45,.62,12.6,1.47,22.77,2.26,45.03,8.14,65.94,17.43h0l-17.64,7.14c-13.36-12.72-30.15-21.26-48.3-24.57l-12.6-1.47c4.23,.12,8.45,.62,12.6,1.47h2.94l-2.94-1.47Z" fill="#fff"/><path d="M259.99,305.23c-4.15-.85-8.37-1.35-12.6-1.47l12.6,1.47Z" fill="#fff"/></g></g><g id="CSU_Global"><g><path d="M209.48,196.81c-21.81,21.81-21.81,57.35,0,79.19l39.92,39.86h0l28.84-28.81-28.84-29.04-2.97-2.94c-10.41-10.46-10.38-27.43,0-37.86l2.97-3,61.59,61.91c2.85,2.88,4.56,6.85,4.56,10.94s-1.65,8-4.56,10.91l-50.71,50.68c-2.5,2.59-5.91,4.18-9.58,4.5-.53,.06-.91,.06-1.29,.06-4.05,0-8.03-1.62-10.94-4.56l-50.8-50.74c-14.7-14.79-23.46-33.72-25.08-54.18l-66.32,66.32c9.09,17.99,24.34,38.72,48.36,58.91,44.3,37.31,104.77,61.56,104.77,61.56,0,0,60.5-24.25,104.83-61.56,23.99-20.23,39.22-40.98,48.39-59.03L249.4,156.92l-39.92,39.89Z" fill="#fff"/><path d="M408.03,106.2c-43.83-17.67-84.49-32.31-125.94-37.39-12.61,5.03-20.11,7.61-32.69,10.05-12.55-2.44-20.05-5.03-32.66-10.05-41.45,5.09-82.14,19.73-125.97,37.39-4.32,1.68-7.14,5.85-7.14,10.55V255.04c0,12,.67,18.52,1.32,22.52L238.47,124.11c2.91-2.94,6.88-4.53,10.94-4.53,.41,0,.79,0,1.23,.09,3.68,.26,7.03,1.76,9.64,4.44l153.6,153.43c.65-4.06,1.29-10.55,1.29-22.49V116.76c0-4.71-2.79-8.88-7.15-10.55" fill="#fff"/><polygon points="249.4 315.87 278.24 287.06 249.4 258.01 249.4 315.87 249.4 315.87" fill="#fff"/></g></g><g id="Energy"><g><path d="M255.4,119.58c5.66,0,11.22,.42,16.66,1.21l-16.66-66.55-16.66,66.55c5.44-.79,11-1.21,16.66-1.21Z" fill="#fff"/><path d="M326.55,144.32l18.85-65.97-47.69,49.29c10.46,4.15,20.15,9.8,28.83,16.68Z" fill="#fff"/><path d="M213.09,127.64l-47.69-49.29,18.85,65.97c8.68-6.88,18.38-12.53,28.83-16.68Z" fill="#fff"/><path d="M435.4,234.24l-66.55-16.66c.79,5.44,1.21,11,1.21,16.66s-.42,11.21-1.21,16.65l66.55-16.66Z" fill="#fff"/><path d="M362,191.92l49.29-47.69-65.97,18.85c6.88,8.68,12.53,18.38,16.68,28.84Z" fill="#fff"/><path d="M346.18,234.24c0-7.98-1.03-15.71-2.96-23.08l-.88-.22,.65-.63c-4.17-15.31-12.25-29.01-23.1-39.96l-.84,.24,.24-.84c-10.95-10.85-24.65-18.93-39.96-23.1l-.63,.65-.22-.88c-7.37-1.93-15.1-2.96-23.07-2.96s-15.71,1.03-23.07,2.96l-.22,.88-.63-.65c-15.31,4.17-29.01,12.25-39.96,23.1l.24,.84-.84-.24c-10.85,10.95-18.92,24.65-23.1,39.96l.65,.63-.88,.22c-1.93,7.37-2.96,15.1-2.96,23.08s1.03,15.7,2.96,23.07l.88,.22-.65,.63c4.17,15.31,12.25,29.01,23.1,39.96l.85-.24-.24,.84c10.95,10.85,24.65,18.92,39.96,23.1l.63-.65,.22,.88c7.37,1.93,15.1,2.96,23.07,2.96s15.71-1.03,23.07-2.96l.22-.88,.63,.65c15.31-4.17,29.01-12.25,39.96-23.1l-.24-.84,.85,.24c10.85-10.95,18.92-24.65,23.1-39.96l-.65-.63,.88-.22c1.93-7.37,2.96-15.1,2.96-23.07Z" fill="#fff"/><path d="M140.75,234.24c0-5.66,.42-11.22,1.21-16.66l-66.55,16.66,66.55,16.66c-.79-5.44-1.21-11-1.21-16.65Z" fill="#fff"/><path d="M255.4,348.89c-5.66,0-11.22-.42-16.66-1.21l16.66,66.55,16.66-66.55c-5.44,.79-11,1.21-16.66,1.21Z" fill="#fff"/><path d="M165.49,163.09l-65.97-18.85,49.29,47.69c4.15-10.46,9.8-20.15,16.68-28.84Z" fill="#fff"/><path d="M345.32,305.38l65.97,18.85-49.29-47.69c-4.15,10.46-9.8,20.15-16.68,28.83Z" fill="#fff"/><path d="M297.72,340.83l47.69,49.29-18.85-65.97c-8.68,6.88-18.38,12.53-28.83,16.68Z" fill="#fff"/><path d="M184.26,324.15l-18.85,65.97,47.69-49.29c-10.46-4.15-20.15-9.8-28.83-16.68Z" fill="#fff"/><path d="M148.81,276.55l-49.29,47.69,65.97-18.85c-6.88-8.68-12.53-18.38-16.68-28.83Z" fill="#fff"/></g></g><g id="Water"><path d="M339.11,246.18c-63.2-126.29-89.11-178.18-89.11-178.18,0,0-25.91,51.89-89.11,178.18-36.24,72.43-19.5,121.55,13.98,155.08,31.82,31.86,71.58,30.85,75.13,30.69,3.55,.16,43.31,1.17,75.13-30.69,33.48-33.53,50.22-82.65,13.98-155.08Z" fill="#fff"/></g><g id="Environment"><g><path d="M379.88,253.59s-35.44-15.81-90.57,18.18c0,0,24.41-89.3-11.81-146.99,0,0,15.69,82.92-1.23,135.17-8.37-20.33-33.63-26.31-33.63-26.31,0,0,9.16,9.19,17.3,20.43,4.83,6.67,6.97,17.26,7.91,24.79-22.26,37.7-43.96-1.78-44.7-18.15-.79-17.38,6.3-71.13-33.08-105.9,0,0,24.41,45.84,17.32,101.95,0,0-16.54-18.97-42.53-22.92-25.99-3.95-41.74,0-41.74,0,0,0,65.37,4.74,92.14,57.69,26.78,52.95,25.99,83.77,9.45,139.88h62.22s-38.59-76.66-3.15-124.87c35.44-48.21,81.91-52.16,96.08-52.95Z" fill="#fff"/><path d="M213.47,143.36s13.53-19.29,.5-42.96c-9.8-17.8-36.33-19.11-36.33-19.11,0,0-17.2,40.69,35.83,62.07Z" fill="#fff"/><path d="M158.91,316.51s13.33,6.17,26.35-4.54c9.79-8.05,7.6-24.55,7.6-24.55,0,0-26.85-6.01-33.96,29.09Z" fill="#fff"/><path d="M115.24,221.03s-12.07-16.3-34.87-11.98c-17.14,3.25-25.36,24.67-25.36,24.67,0,0,28.53,25.07,60.24-12.69Z" fill="#fff"/><path d="M324.51,82.24s-22.65,3.63-29.4,19.83c-8.97,21.54,4.45,36.82,4.45,36.82,43.52-23.34,24.95-56.65,24.95-56.65Z" fill="#fff"/><path d="M306.4,169.42s24.95,17.19,55.96,.29c23.31-12.7,25.37-46.71,25.37-46.71,0,0-52.8-21.71-81.32,46.42Z" fill="#fff"/><path d="M344.19,280.33s-2.88,29.1,25.58,46.67c21.4,13.21,50.84-1.62,50.84-1.62,0,0-6.18-54.45-76.42-45.06Z" fill="#fff"/><path d="M370.95,230.35s34.54,23.32,63.83-22.21c0,0-15.4-16.07-39.63-8.18-18.22,5.93-24.2,30.4-24.2,30.4Z" fill="#fff"/><path d="M249.25,206.43s28.31-20.54,1.06-56.88c0,0-17.08,7.52-17.91,28.95-.63,16.11,16.84,27.93,16.84,27.93Z" fill="#fff"/><path d="M80.87,287.69s24.76,21.8,48.79,14.44c31.96-9.79,36.49-38.68,36.49-38.68-65.6-26.88-85.27,24.25-85.27,24.25Z" fill="#fff"/><path d="M184.58,213.54s2.59-30.26-27.35-48.99c-22.51-14.08-53.01,.9-53.01,.9,0,0,7.23,56.79,80.36,48.09Z" fill="#fff"/><path d="M319.25,226.72s13.34,6.17,26.35-4.54c9.79-8.05,7.6-24.55,7.6-24.55,0,0-26.85-6.01-33.96,29.09Z" fill="#fff"/><path d="M397.73,264.5s7.84,12.46,24.57,10.59c12.58-1.4,19.7-16.45,19.7-16.45,0,0-19.27-19.71-44.27,5.86Z" fill="#fff"/><path d="M265.42,91.37c.86-12.67-12.63-22.37-12.63-22.37,0,0-22.75,15.52-2.12,44.75,0,0,13.61-5.53,14.75-22.38Z" fill="#fff"/></g></g><g id="Community"><path d="M405.71,210.74c-.89,0-1.76,.04-2.6,.13-10.73,1.12-21.55,6.22-30.49,14.36-12.05,10.98-21.34,25.72-30.32,39.97-1.16,1.84-2.31,3.67-3.46,5.47-.54,.85-1.08,1.75-1.63,2.66-2.4,4.01-5.12,8.56-9.42,11.14-2.11,1.27-4.19,1.91-6.2,1.91-5.49,0-9.88-4.96-10.66-12.07-1.12-10.17,.88-20.26,2.81-30.02,.94-4.74,1.91-9.64,2.48-14.39,.94-7.8,1.62-15.77,2.27-23.47,.65-7.66,1.33-15.58,2.26-23.36,.78-6.57,1.64-13.35,2.62-20.75,1.45-10.99,3.07-22.6,5.26-37.64,.35-2.39,.87-4.9,1.43-7.56,1.67-7.95,3.55-16.97,.42-23.52-2.29-4.78-8.66-8.39-14.83-8.39-1.92,0-3.68,.36-5.21,1.06-4.15,1.89-7.05,6.62-8.61,14.06-1.41,6.77-2.91,14.03-4.24,21.19-2.05,10.99-3.44,22.34-4.77,33.31l-.3,2.42c-.76,6.21-1.5,12.41-2.22,18.62-.57,4.93-1.15,8.4-1.88,12.79-.61,3.66-1.36,8.2-2.33,14.92-.22,1.53-.4,3.23-.59,5.02-.85,8-1.73,16.28-6.77,18.29-1.25,.5-2.44,.75-3.55,.75-4.83,0-7.75-4.49-7.99-12.33-.77-24.17,1.72-48.71,4.55-73.83,2.38-21.04,4.15-41.57-.2-61.58-1.59-7.32-5.99-10.89-13.45-10.89-2.43,0-5.19,.38-8.22,1.14-5.91,1.48-7.31,8.87-7.86,15.15-.45,5.1-.51,10.35-.57,15.43-.05,4.91-.11,9.99-.51,15-.54,6.66-1.48,13.38-2.4,19.89-1.22,8.65-2.48,17.59-2.76,26.35-.48,14.88-1.06,26.3-1.9,37.03-.14,1.82-.22,3.69-.31,5.49-.14,3.07-.28,6.25-.71,9.42l-.03,.25c-1.36,10.13-3.41,14.46-6.85,14.46-1.15,0-2.24-.55-3.24-1.62-2.91-3.12-3.73-8.15-4.38-12.19-.13-.78-.25-1.52-.38-2.2-1.03-5.5-1.79-11.04-2.39-15.73-3-23.49-6.79-46.28-10.1-65.47-1.2-6.95-1.74-12.07-2.22-16.59-.56-5.28-1.04-9.84-2.41-15.88-2.01-8.94-8.65-14.71-16.89-14.71-2.66,0-5.36,.61-8.04,1.81-11.89,5.33-10.94,14.19-9.74,25.4,.27,2.48,.54,5.04,.67,7.65,0,.04,0,.07,0,.11,0,.1,1.02,19.89,5.13,46.63,.53,3.43,1.11,7.09,1.72,10.9,5.36,33.47,9,59.67,3.29,67.16-1.54,2.02-3.35,3.04-5.37,3.04-6.45,0-11.62-11.07-12.65-13.44-3.76-7.52-7.16-15.39-10.46-23-5.39-12.47-10.98-25.36-18.22-36.97-5.3-8.47-11.7-17.68-20.75-19.64-1.6-.35-3.1-.52-4.47-.52-5.4,0-8.98,2.73-10.94,8.36-2.75,7.89,1.15,16.77,3.99,23.26,2.4,5.46,5.12,10.9,7.76,16.16,1.59,3.17,3.23,6.45,4.79,9.71,2.32,4.86,4.85,9.75,7.3,14.48,5,9.69,10.18,19.72,14.02,30.19,.69,1.89,1.33,3.76,1.89,5.57,4.09,13.05,3.88,25.41,3.67,38.49-.05,2.71-.09,5.45-.1,8.23-.06,23.69,1.46,54.6,13.78,83.61,9.59,22.59,33.38,34.95,77.14,40.07,34.26,4.01,64.39-14.34,89.31-54.31,2.98-4.77,5.98-9.91,9.75-16.66l2.83-5.08c9.75-17.53,19.83-35.65,31.88-52.28,4.65-6.42,9.5-12.86,14.42-19.15,8.55-10.95,17.61-21.81,26.92-32.28,1.62-1.82,3.32-3.55,4.98-5.23,2.35-2.39,4.78-4.86,6.88-7.51,7.3-9.21,9.26-16.55,5.81-21.81-3.1-4.72-10.01-6.4-15.46-6.4" fill="#fff"/></g><g id="Food"><path d="M180.85,333.29s-57.65-64.48-11.47-114.08c46.19-49.6,146.32-93.75,150.85-147.81,0,0,55.32,102.67-2.86,167.21-48.02,53.27-130.94,109.56-74.61,193.38,0,0-73.63-52.67-36.75-151.28,25.97-69.44,78.49-116.07,78.49-116.07,0,0-65.7,35.87-91.9,94.19-17.96,39.97-11.76,74.45-11.76,74.45Z" fill="#fff"/></g><g id="Health"><path d="M446.12,177.42h0s0-.06,0-.09c0-61.37-48.23-111.12-107.73-111.12h-.17c-.27,0-.54,.03-.82,.03-1.7,.02-3.39,.06-5.07,.16-1.02,.05-2.02,.15-3.03,.24-.93,.08-1.86,.16-2.79,.27-1.2,.13-2.39,.29-3.57,.47-.66,.1-1.32,.2-1.98,.31-1.36,.22-2.71,.47-4.04,.74-.29,.06-.58,.13-.87,.19-26.61,5.76-49.63,21.61-65.06,43.54l.11,.08c-5.19,7.4-9.52,15.48-12.84,24.09-27.91,6.11-48.91,31.7-48.91,62.28,0,35.1,27.69,63.66,61.72,63.66s61.73-28.56,61.73-63.66c0-23.99-12.94-44.92-31.98-55.77,10.42-18.48,28.95-31.49,50.58-33.82,.17-.02,.33-.03,.5-.05,.89-.09,1.78-.16,2.68-.21,.57-.03,1.14-.05,1.71-.07,.67-.02,1.35-.05,2.02-.05h.17c.6,0,1.2,.03,1.8,.05,.59,.02,1.18,.03,1.77,.06,.51,.03,1,.08,1.51,.12,.63,.05,1.26,.09,1.89,.16,.41,.04,.82,.11,1.23,.16,.71,.09,1.42,.18,2.12,.29,.28,.05,.56,.11,.84,.16,.83,.15,1.66,.3,2.48,.47,.1,.02,.19,.05,.29,.07,26.53,5.88,47.24,28.11,51.69,55.93,.03,.19,.07,.37,.1,.56,.12,.76,.2,1.53,.29,2.3,.04,.39,.1,.77,.14,1.16,.07,.64,.11,1.29,.15,1.94,.04,.52,.09,1.03,.12,1.55,.03,.59,.04,1.19,.05,1.77,.01,.58,.04,1.15,.04,1.73-.02,.45-.03,.9-.04,1.35l-.02,1.26,.05,1.26c.04,.9,.68,22.47-18.55,57.92-17.55,32.35-55.2,82.12-135.42,138.98-80.22-56.86-117.87-106.63-135.42-138.98-19.23-35.45-18.59-57.02-18.55-57.92l.05-1.26-.02-1.26c0-.5-.02-1-.04-1.49,.18-37.61,29.82-68.17,66.3-68.33h.28c11.37,0,20.58-9.5,20.58-21.22s-9.21-21.22-20.58-21.22c-59.49,0-107.73,49.75-107.73,111.12,0,.63,.03,1.25,.05,1.88-.61,15.02,2.31,118.53,184.9,242.79,2.73,2.36,6.25,3.79,10.09,3.79,.03,0,.06,0,.09,0s.06,0,.09,0c3.84,0,7.36-1.43,10.09-3.79,182.6-124.25,185.52-227.77,184.91-242.79,.01-.59,.04-1.19,.04-1.78m-195.04,42.41c-11.35,0-20.57-9.52-20.57-21.22s8.9-20.85,19.95-21.19h1.25c11.06,.34,19.95,9.7,19.95,21.19s-9.23,21.22-20.58,21.22" fill="#fff"/></g></svg>