<?xml version="1.0" encoding="UTF-8"?><svg xmlns="http://www.w3.org/2000/svg" viewBox="0 0 500 500"><g id="a"/><g id="b"/><g id="c"/><g id="d"/><g id="e"/><g id="f"/><g id="g"/><g id="h"/><g id="i"/><g id="j"/><g id="k"><path d="M397.7,210.24c-.89,0-1.76,.04-2.6,.13-10.73,1.12-21.55,6.22-30.49,14.36-12.05,10.98-21.34,25.72-30.32,39.97-1.16,1.84-2.31,3.67-3.46,5.47-.54,.85-1.08,1.75-1.63,2.66-2.4,4.01-5.12,8.56-9.42,11.14-2.11,1.27-4.19,1.91-6.2,1.91-5.49,0-9.88-4.96-10.66-12.07-1.12-10.17,.88-20.26,2.81-30.02,.94-4.74,1.91-9.64,2.48-14.39,.94-7.8,1.62-15.77,2.27-23.47,.65-7.66,1.33-15.58,2.26-23.36,.78-6.57,1.64-13.35,2.62-20.75,1.45-10.99,3.07-22.6,5.26-37.64,.35-2.39,.87-4.9,1.43-7.56,1.67-7.95,3.55-16.97,.42-23.52-2.29-4.78-8.66-8.39-14.83-8.39-1.92,0-3.68,.36-5.21,1.06-4.15,1.89-7.05,6.62-8.61,14.06-1.41,6.77-2.91,14.03-4.24,21.19-2.05,10.99-3.44,22.34-4.77,33.31l-.3,2.42c-.76,6.21-1.5,12.41-2.22,18.62-.57,4.93-1.15,8.4-1.88,12.79-.61,3.66-1.36,8.2-2.33,14.92-.22,1.53-.4,3.23-.59,5.02-.85,8-1.73,16.28-6.77,18.29-1.25,.5-2.44,.75-3.55,.75-4.83,0-7.75-4.49-7.99-12.33-.77-24.17,1.72-48.71,4.55-73.83,2.38-21.04,4.15-41.57-.2-61.58-1.59-7.32-5.99-10.89-13.45-10.89-2.43,0-5.19,.38-8.22,1.14-5.91,1.48-7.31,8.87-7.86,15.15-.45,5.1-.51,10.35-.57,15.43-.05,4.91-.11,9.99-.51,15-.54,6.66-1.48,13.38-2.4,19.89-1.22,8.65-2.48,17.59-2.76,26.35-.48,14.88-1.06,26.3-1.9,37.03-.14,1.82-.22,3.69-.31,5.49-.14,3.07-.28,6.25-.71,9.42l-.03,.25c-1.36,10.13-3.41,14.46-6.85,14.46-1.15,0-2.24-.55-3.24-1.62-2.91-3.12-3.73-8.15-4.38-12.19-.13-.78-.25-1.52-.38-2.2-1.03-5.5-1.79-11.04-2.39-15.73-3-23.49-6.79-46.28-10.1-65.47-1.2-6.95-1.74-12.07-2.22-16.59-.56-5.28-1.04-9.84-2.41-15.88-2.01-8.94-8.65-14.71-16.89-14.71-2.66,0-5.36,.61-8.04,1.81-11.89,5.33-10.94,14.19-9.74,25.4,.27,2.48,.54,5.04,.67,7.65,0,.04,0,.07,0,.11,0,.1,1.02,19.89,5.13,46.63,.53,3.43,1.11,7.09,1.72,10.9,5.36,33.47,9,59.67,3.29,67.16-1.54,2.02-3.35,3.04-5.37,3.04-6.45,0-11.62-11.07-12.65-13.44-3.76-7.52-7.16-15.39-10.46-23-5.39-12.47-10.98-25.36-18.22-36.97-5.3-8.47-11.7-17.68-20.75-19.64-1.6-.35-3.1-.52-4.47-.52-5.4,0-8.98,2.73-10.94,8.36-2.75,7.89,1.15,16.77,3.99,23.26,2.4,5.46,5.12,10.9,7.76,16.16,1.59,3.17,3.23,6.45,4.79,9.71,2.32,4.86,4.85,9.75,7.3,14.48,5,9.69,10.18,19.72,14.02,30.19,.69,1.89,1.33,3.76,1.89,5.57,4.09,13.05,3.88,25.41,3.67,38.49-.05,2.71-.09,5.45-.1,8.23-.06,23.69,1.46,54.6,13.78,83.61,9.59,22.59,33.38,34.95,77.14,40.07,34.26,4.01,64.39-14.34,89.31-54.31,2.98-4.77,5.98-9.91,9.75-16.66l2.83-5.08c9.75-17.53,19.83-35.65,31.88-52.28,4.65-6.42,9.5-12.86,14.42-19.15,8.55-10.95,17.61-21.81,26.92-32.28,1.62-1.82,3.32-3.55,4.98-5.23,2.35-2.39,4.78-4.86,6.88-7.51,7.3-9.21,9.26-16.55,5.81-21.81-3.1-4.72-10.01-6.4-15.46-6.4" fill="#fff"/></g><g id="l"/><g id="m"/></svg>