<?xml version="1.0" encoding="UTF-8"?><svg xmlns="http://www.w3.org/2000/svg" viewBox="0 0 500 500"><g id="a"/><g id="b"/><g id="c"/><g id="d"/><g id="e"/><g id="f"/><g id="g"/><g id="h"><g><path d="M250,135.34c5.66,0,11.22,.42,16.66,1.21l-16.66-66.55-16.66,66.55c5.44-.79,11-1.21,16.66-1.21Z" fill="#fff"/><path d="M321.15,160.09l18.85-65.97-47.69,49.29c10.46,4.15,20.15,9.8,28.83,16.68Z" fill="#fff"/><path d="M207.69,143.41l-47.69-49.29,18.85,65.97c8.68-6.88,18.38-12.53,28.83-16.68Z" fill="#fff"/><path d="M430,250l-66.55-16.66c.79,5.44,1.21,11,1.21,16.66s-.42,11.21-1.21,16.65l66.55-16.66Z" fill="#fff"/><path d="M356.59,207.69l49.29-47.69-65.97,18.85c6.88,8.68,12.53,18.38,16.68,28.84Z" fill="#fff"/><path d="M340.77,250c0-7.98-1.03-15.71-2.96-23.08l-.88-.22,.65-.63c-4.17-15.31-12.25-29.01-23.1-39.96l-.84,.24,.24-.84c-10.95-10.85-24.65-18.93-39.96-23.1l-.63,.65-.22-.88c-7.37-1.93-15.1-2.96-23.07-2.96s-15.71,1.03-23.07,2.96l-.22,.88-.63-.65c-15.31,4.17-29.01,12.25-39.96,23.1l.24,.84-.84-.24c-10.85,10.95-18.92,24.65-23.1,39.96l.65,.63-.88,.22c-1.93,7.37-2.96,15.1-2.96,23.08s1.03,15.7,2.96,23.07l.88,.22-.65,.63c4.17,15.31,12.25,29.01,23.1,39.96l.85-.24-.24,.84c10.95,10.85,24.65,18.92,39.96,23.1l.63-.65,.22,.88c7.37,1.93,15.1,2.96,23.07,2.96s15.71-1.03,23.07-2.96l.22-.88,.63,.65c15.31-4.17,29.01-12.25,39.96-23.1l-.24-.84,.85,.24c10.85-10.95,18.92-24.65,23.1-39.96l-.65-.63,.88-.22c1.93-7.37,2.96-15.1,2.96-23.07Z" fill="#fff"/><path d="M135.34,250c0-5.66,.42-11.22,1.21-16.66l-66.55,16.66,66.55,16.66c-.79-5.44-1.21-11-1.21-16.65Z" fill="#fff"/><path d="M250,364.66c-5.66,0-11.22-.42-16.66-1.21l16.66,66.55,16.66-66.55c-5.44,.79-11,1.21-16.66,1.21Z" fill="#fff"/><path d="M160.09,178.85l-65.97-18.85,49.29,47.69c4.15-10.46,9.8-20.15,16.68-28.84Z" fill="#fff"/><path d="M339.91,321.15l65.97,18.85-49.29-47.69c-4.15,10.46-9.8,20.15-16.68,28.83Z" fill="#fff"/><path d="M292.31,356.59l47.69,49.29-18.85-65.97c-8.68,6.88-18.38,12.53-28.83,16.68Z" fill="#fff"/><path d="M178.85,339.91l-18.85,65.97,47.69-49.29c-10.46-4.15-20.15-9.8-28.83-16.68Z" fill="#fff"/><path d="M143.41,292.31l-49.29,47.69,65.97-18.85c-6.88-8.68-12.53-18.38-16.68-28.83Z" fill="#fff"/></g></g><g id="i"/><g id="j"/><g id="k"/><g id="l"/><g id="m"/></svg>