<?xml version="1.0" encoding="UTF-8"?><svg xmlns="http://www.w3.org/2000/svg" viewBox="0 0 500 500"><g id="a"/><g id="b"/><g id="c"/><g id="d"/><g id="e"/><g id="f"/><g id="g"/><g id="h"/><g id="i"/><g id="j"><g><path d="M381.38,253.39s-35.44-15.81-90.57,18.18c0,0,24.41-89.3-11.81-146.99,0,0,15.69,82.92-1.23,135.17-8.37-20.33-33.63-26.31-33.63-26.31,0,0,9.16,9.19,17.3,20.43,4.83,6.67,6.97,17.26,7.91,24.79-22.26,37.7-43.96-1.78-44.7-18.15-.79-17.38,6.3-71.13-33.08-105.9,0,0,24.41,45.84,17.32,101.95,0,0-16.54-18.97-42.53-22.92-25.99-3.95-41.74,0-41.74,0,0,0,65.37,4.74,92.14,57.69,26.78,52.95,25.99,83.77,9.45,139.88h62.22s-38.59-76.66-3.15-124.87c35.44-48.21,81.91-52.16,96.08-52.95Z" fill="#fff"/><path d="M214.97,143.16s13.53-19.29,.5-42.96c-9.8-17.8-36.33-19.11-36.33-19.11,0,0-17.2,40.69,35.83,62.07Z" fill="#fff"/><path d="M160.41,316.3s13.33,6.17,26.35-4.54c9.79-8.05,7.6-24.55,7.6-24.55,0,0-26.85-6.01-33.96,29.09Z" fill="#fff"/><path d="M116.74,220.83s-12.07-16.3-34.87-11.98c-17.14,3.25-25.36,24.67-25.36,24.67,0,0,28.53,25.07,60.24-12.69Z" fill="#fff"/><path d="M326.01,82.04s-22.65,3.63-29.4,19.83c-8.97,21.54,4.45,36.82,4.45,36.82,43.52-23.34,24.95-56.65,24.95-56.65Z" fill="#fff"/><path d="M307.9,169.22s24.95,17.19,55.96,.29c23.31-12.7,25.37-46.71,25.37-46.71,0,0-52.8-21.71-81.32,46.42Z" fill="#fff"/><path d="M345.69,280.13s-2.88,29.1,25.58,46.67c21.4,13.21,50.84-1.62,50.84-1.62,0,0-6.18-54.45-76.42-45.06Z" fill="#fff"/><path d="M372.45,230.15s34.54,23.32,63.83-22.21c0,0-15.4-16.07-39.63-8.18-18.22,5.93-24.2,30.4-24.2,30.4Z" fill="#fff"/><path d="M250.75,206.23s28.31-20.54,1.06-56.88c0,0-17.08,7.52-17.91,28.95-.63,16.11,16.84,27.93,16.84,27.93Z" fill="#fff"/><path d="M82.37,287.48s24.76,21.8,48.79,14.44c31.96-9.79,36.49-38.68,36.49-38.68-65.6-26.88-85.27,24.25-85.27,24.25Z" fill="#fff"/><path d="M186.08,213.34s2.59-30.26-27.35-48.99c-22.51-14.08-53.01,.9-53.01,.9,0,0,7.23,56.79,80.36,48.09Z" fill="#fff"/><path d="M320.75,226.52s13.34,6.17,26.35-4.54c9.79-8.05,7.6-24.55,7.6-24.55,0,0-26.85-6.01-33.96,29.09Z" fill="#fff"/><path d="M399.23,264.3s7.84,12.46,24.57,10.59c12.58-1.4,19.7-16.45,19.7-16.45,0,0-19.27-19.71-44.27,5.86Z" fill="#fff"/><path d="M266.92,91.17c.86-12.67-12.63-22.37-12.63-22.37,0,0-22.75,15.52-2.12,44.75,0,0,13.61-5.53,14.75-22.38Z" fill="#fff"/></g></g><g id="k"/><g id="l"/><g id="m"/></svg>