<?xml version="1.0" encoding="UTF-8"?><svg xmlns="http://www.w3.org/2000/svg" viewBox="0 0 500 500"><g id="a"/><g id="b"/><g id="c"/><g id="d"><g><path d="M399.94,348.84h-54.49c-10.8,31.48-26.61,57.17-45.51,73.74,41.43-12.01,76.73-38.56,100-73.74Z" fill="#fff"/><path d="M256.76,429.15c22.18-2.93,43.29-20.14,60.06-49.3,5.46-9.5,10.22-19.92,14.29-31.01h-74.35v80.31Z" fill="#fff"/><path d="M429.51,256.76h-68.51c-.56,28.13-4.57,54.73-11.33,78.56h58.39c12.75-23.53,20.39-50.22,21.44-78.56Z" fill="#fff"/><path d="M408.06,164.68h-58.39c6.76,23.83,10.77,50.43,11.33,78.56h68.51c-1.05-28.34-8.7-55.02-21.45-78.56Z" fill="#fff"/><path d="M70.49,243.24h68.51c.56-28.13,4.57-54.73,11.33-78.56h-58.39c-12.75,23.53-20.39,50.22-21.45,78.56Z" fill="#fff"/><path d="M399.93,151.16c-23.27-35.18-58.57-61.73-100-73.74,18.9,16.57,34.7,42.26,45.5,73.74h54.49Z" fill="#fff"/><path d="M256.76,70.85v80.31h74.35c-4.07-11.09-8.83-21.51-14.29-31.01-16.77-29.16-37.88-46.37-60.06-49.3Z" fill="#fff"/><path d="M256.76,243.24h90.69c-.57-27.85-4.63-54.56-11.83-78.56h-78.86v78.56Z" fill="#fff"/><path d="M256.76,335.32h78.86c7.2-24,11.26-50.7,11.83-78.56h-90.69v78.56Z" fill="#fff"/><path d="M243.24,164.68h-78.86c-7.2,24-11.27,50.7-11.83,78.56h90.7v-78.56Z" fill="#fff"/><path d="M243.24,70.85c-22.18,2.93-43.29,20.14-60.06,49.3-5.46,9.5-10.22,19.92-14.29,31.01h74.35V70.85Z" fill="#fff"/><path d="M243.24,256.76h-90.7c.57,27.85,4.63,54.56,11.83,78.56h78.86v-78.56Z" fill="#fff"/><path d="M91.94,335.32h58.39c-6.76-23.83-10.77-50.43-11.33-78.56H70.49c1.05,28.34,8.69,55.02,21.44,78.56Z" fill="#fff"/><path d="M200.06,422.58c-18.9-16.57-34.7-42.26-45.5-73.74h-54.49c23.27,35.18,58.57,61.73,100,73.74Z" fill="#fff"/><path d="M200.06,77.42c-41.43,12.01-76.72,38.56-99.99,73.74h54.49c10.8-31.48,26.6-57.16,45.5-73.74Z" fill="#fff"/><path d="M243.24,429.15v-80.31h-74.35c4.07,11.1,8.83,21.51,14.29,31.01,16.77,29.16,37.88,46.37,60.06,49.3Z" fill="#fff"/></g></g><g id="e"/><g id="f"/><g id="g"/><g id="h"/><g id="i"/><g id="j"/><g id="k"/><g id="l"/><g id="m"/></svg>