<?xml version="1.0" encoding="UTF-8"?>
<svg id="CSU_Pueblo" xmlns="http://www.w3.org/2000/svg" viewBox="0 0 500 500">
    <g id="Layer_1-2">
        <path
            d="M357.22,320.98l-1.89,11.76h0l-53.97,25.2h0c-5.77-20.57-24.21-35.03-45.57-35.7h-3.99c-12.91-1.47-25.46,4.89-31.92,16.17-3.73,15.78-2.63,32.31,3.15,47.46,3.99,13.41,8.9,26.53,14.7,39.27,7.45,.99,14.95,1.55,22.47,1.68,78.74,.13,146.49-55.63,161.49-132.93-2.16,2.19-4.48,4.23-6.93,6.09-16.62,12.65-36.68,19.98-57.54,21Z"
            fill="#fff" />
        <path
            d="M315.22,137.44l31.5,23.31h0l7.77,39.69,69.51,52.08c-3.25-58.32-37.12-110.57-89.04-137.34-9.08,4.76-16.1,12.68-19.74,22.26Z"
            fill="#fff" />
        <path d="M259.99,304.18c-4.15-.85-8.37-1.35-12.6-1.47l12.6,1.47Z" fill="#fff" />
        <path
            d="M228.91,269.53c37.31,8.42,73.09,22.59,106.05,42l5.46-2.31c-14.87-12.03-27.89-26.18-38.64-42-5.67-5.04-19.74-38.85-51.45-17.64h0l27.3,12.6-2.1,4.2,17.64,8.19-1.89,3.57,10.29,7.56-15.54-8.61v-3.15l-18.48-8.19,2.52-3.57-23.52-10.08c-6.45,5.2-12.36,11.04-17.64,17.43Z"
            fill="#fff" />
        <path
            d="M317.74,197.92h3.99c4.2,.1,8.1-2.17,10.08-5.88-1.15-1.63-2.41-3.17-3.78-4.62-9.66,1.68-13.23-5.67-14.28-13.65-5.25-4.41-11.76-9.66-21-15.75l-4.83-3.78,1.89,5.88c1.26,1.26,12.39,33.18,27.93,37.8Z"
            fill="#fff" />
        <path
            d="M202.03,103.42c-78.12,10.5-110.67,53.76-116.97,62.37h35.07v1.47s-45.57,64.05-44.1,101.01l21-6.09h0c-.28-37.67,12.39-74.3,35.91-103.74l-9.03-1.26h.42c10.77-13.71,25.4-23.88,42-29.19,24.77-17.32,53.83-27.49,84-29.4,14.44-5.59,27.48-14.26,38.22-25.41-25.78,17.32-55.57,27.73-86.52,30.24Z"
            fill="#fff" />
        <path
            d="M194.05,117.28c18.95-5.44,37.6-11.89,55.86-19.32-30.17,1.91-59.22,12.08-84,29.4,9.19-3.87,18.58-7.24,28.14-10.08Z"
            fill="#fff" />
        <path
            d="M97.03,262.18h4.62c3.12,19.09,8.62,37.72,16.38,55.44,7.61,17.55,17.96,33.78,30.66,48.09,15.45,16.94,34.86,29.78,56.49,37.38-26.81-16.5-49.27-39.19-65.52-66.15-13.88-29.12-20.3-61.23-18.69-93.45l-23.94,4.41v-1.26c8.47-33.07,25.91-63.16,50.4-86.94l-14.49-1.26c-23.52,29.44-36.19,66.06-35.91,103.74Z"
            fill="#fff" />
        <path
            d="M335.17,167.68c8.19,90.09-64.68,13.65-53.97-22.26-4.62,0-33.39,0-78.33,33.6l12.39,9.24s-27.09,17.01-45.99,79.38l11.76,4.83c-6.1,38.42,5.47,77.55,31.5,106.47-44.31-87.36,67.83-84,93.45-39.48l36.12-17.01v-6.72l-4.41,2.52s-88.41-40.95-122.43-42c0,0,48.3-84,93.87-11.55,29.61,42,37.38,60.27,95.34,25.62,0,0-21-9.87-19.74-25.62l27.72,7.14,8.4-4.83-78.75-60.69-6.93-38.64Zm-75.18,136.5h-12.6c4.23,.12,8.45,.62,12.6,1.47,22.77,2.26,45.03,8.14,65.94,17.43h0l-17.64,7.14c-13.36-12.72-30.15-21.26-48.3-24.57l-12.6-1.47c4.23,.12,8.45,.62,12.6,1.47h2.94l-2.94-1.47Z"
            fill="#fff" />
        <path d="M259.99,305.23c-4.15-.85-8.37-1.35-12.6-1.47l12.6,1.47Z" fill="#fff" />
    </g>
</svg>