<?xml version="1.0" encoding="UTF-8"?><svg id="Research" xmlns="http://www.w3.org/2000/svg" viewBox="0 0 500 500"><path d="M408.08,431.44h-28.31c20.09-30.59,82.34-150.93-88.2-266.63,.23-1.77,.38-3.56,.38-5.38,0-19.02-13.08-35.41-31.99-43.18l21.21-27.68-10.78-6.29,32.34-42.29-51.88-27.43-33.01,42.29-16.84-7.43L83.08,204l11.45,6.86-13.48,17.72,49.86,29.72,14.15-17.72,13.48,8,40.26-52.53c9.86,7.09,22.61,11.39,36.55,11.39,8.93,0,17.35-1.8,24.86-4.93,32.77,35.85,117.05,147.18-10.88,228.94h-105.19c-5.97,0-10.86,4.15-10.86,9.21v37.58c0,5.07,4.89,9.21,10.86,9.21H408.08c5.97,0,10.86-4.15,10.86-9.21v-37.58c0-5.07-4.89-9.21-10.86-9.21ZM235.35,174.64c-9.91,0-17.94-6.81-17.94-15.21s8.03-15.21,17.94-15.21,17.94,6.81,17.94,15.21-8.03,15.21-17.94,15.21Z" fill="#fff"/></svg>