<?xml version="1.0" encoding="UTF-8"?><svg id="Energy" xmlns="http://www.w3.org/2000/svg" viewBox="0 0 500 500"><path d="M250,116.63c6.58,0,13.05,.49,19.38,1.41l-19.38-77.41-19.38,77.41c6.33-.92,12.79-1.41,19.38-1.41Z" fill="#fff"/><path d="M332.76,145.41l21.93-76.74-55.47,57.34c12.16,4.83,23.44,11.4,33.54,19.4Z" fill="#fff"/><path d="M200.78,126.01l-55.47-57.34,21.93,76.74c10.1-8,21.38-14.57,33.54-19.4Z" fill="#fff"/><path d="M459.38,250l-77.42-19.38c.92,6.33,1.41,12.8,1.41,19.38s-.48,13.05-1.4,19.37l77.41-19.38Z" fill="#fff"/><path d="M373.99,200.78l57.34-55.47-76.74,21.93c8,10.1,14.57,21.38,19.4,33.54Z" fill="#fff"/><path d="M355.59,250c0-9.28-1.2-18.27-3.45-26.85l-1.02-.26,.75-.73c-4.85-17.81-14.25-33.75-26.87-46.48l-.98,.28,.28-.98c-12.74-12.62-28.67-22.01-46.48-26.87l-.73,.75-.26-1.02c-8.57-2.25-17.57-3.45-26.84-3.45s-18.27,1.2-26.84,3.45l-.25,1.02-.73-.75c-17.81,4.85-33.75,14.25-46.48,26.87l.28,.98-.98-.28c-12.62,12.74-22.01,28.67-26.87,46.48l.75,.73-1.02,.26c-2.25,8.57-3.45,17.57-3.45,26.85s1.2,18.27,3.45,26.84l1.02,.26-.75,.73c4.85,17.81,14.25,33.75,26.87,46.48l.98-.28-.28,.98c12.74,12.62,28.67,22.01,46.48,26.87l.73-.75,.25,1.02c8.57,2.25,17.57,3.45,26.84,3.45s18.27-1.2,26.84-3.45l.26-1.02,.73,.75c17.81-4.85,33.75-14.25,46.48-26.87l-.28-.98,.98,.28c12.62-12.74,22.01-28.67,26.87-46.48l-.75-.73,1.02-.26c2.24-8.57,3.45-17.56,3.45-26.84Z" fill="#fff"/><path d="M116.63,250.01c0-6.58,.49-13.05,1.41-19.38l-77.42,19.38,77.41,19.38c-.92-6.32-1.41-12.79-1.41-19.37Z" fill="#fff"/><path d="M250,383.37c-6.58,0-13.05-.49-19.38-1.41l19.38,77.42,19.38-77.42c-6.33,.92-12.79,1.41-19.38,1.41Z" fill="#fff"/><path d="M145.41,167.24l-76.74-21.93,57.34,55.47c4.83-12.16,11.4-23.44,19.4-33.54Z" fill="#fff"/><path d="M354.59,332.76l76.74,21.93-57.34-55.47c-4.83,12.16-11.4,23.44-19.4,33.54Z" fill="#fff"/><path d="M299.22,373.99l55.47,57.34-21.93-76.74c-10.1,8-21.38,14.57-33.54,19.4Z" fill="#fff"/><path d="M167.24,354.59l-21.93,76.74,55.47-57.34c-12.16-4.83-23.44-11.4-33.54-19.4Z" fill="#fff"/><path d="M126.01,299.22l-57.34,55.47,76.74-21.93c-8-10.1-14.57-21.38-19.4-33.54Z" fill="#fff"/></svg>