<?xml version="1.0" encoding="UTF-8"?><svg xmlns="http://www.w3.org/2000/svg" viewBox="0 0 500 500"><g id="a"/><g id="b"/><g id="c"/><g id="d"/><g id="e"/><g id="f"/><g id="g"/><g id="h"><g><path d="M252.92,125.79c2.11,0,3.82-1.49,3.82-3.33v-49.12c0-1.84-1.71-3.33-3.82-3.33s-3.83,1.49-3.83,3.33v49.12c0,1.84,1.71,3.33,3.83,3.33" fill="#fff"/><path d="M209.27,129.48c.65,2.01,2.81,3.11,4.82,2.45,2.01-.65,3.11-2.81,2.46-4.82l-11.22-34.52c-.65-2.01-2.81-3.11-4.82-2.45-2.01,.65-3.11,2.81-2.45,4.82l11.22,34.52Z" fill="#fff"/><path d="M173.71,148.94c1.24,1.71,3.63,2.09,5.34,.85,1.71-1.24,2.09-3.63,.85-5.34l-33.12-45.59c-1.24-1.71-3.63-2.09-5.34-.85-1.71,1.24-2.09,3.63-.85,5.34l33.12,45.6Z" fill="#fff"/><path d="M123.11,161.88l22.8,16.56c1.71,1.24,4.1,.86,5.34-.84,1.24-1.71,.86-4.1-.85-5.34l-22.8-16.56c-1.71-1.24-4.1-.86-5.34,.85-1.24,1.71-.86,4.1,.85,5.34" fill="#fff"/><path d="M74.98,197.66l53.6,17.42c2.01,.65,4.17-.45,4.82-2.45,.65-2.01-.44-4.17-2.45-4.82l-53.6-17.42c-2.01-.66-4.17,.44-4.82,2.45-.65,2.01,.45,4.17,2.45,4.82" fill="#fff"/><path d="M95.78,247.63c-2.11,0-3.83,1.71-3.83,3.82s1.71,3.82,3.83,3.82h27.64c2.11,0,3.82-1.71,3.82-3.82s-1.71-3.82-3.82-3.82h-27.64Z" fill="#fff"/><path d="M77.35,312.53l53.6-17.42c2.01-.65,3.11-2.81,2.45-4.82-.65-2.01-2.81-3.11-4.82-2.45l-53.6,17.41c-2.01,.66-3.11,2.81-2.45,4.82,.65,2.01,2.81,3.11,4.82,2.45" fill="#fff"/><path d="M120.33,347.79c1.24,1.71,3.63,2.09,5.34,.85l24.73-17.97c1.71-1.24,2.09-3.63,.85-5.34-1.24-1.71-3.63-2.09-5.34-.85l-24.73,17.97c-1.71,1.24-2.09,3.63-.85,5.34" fill="#fff"/><path d="M173.71,353.97l-33.13,45.59c-1.24,1.71-.86,4.1,.85,5.34,1.71,1.24,4.1,.86,5.34-.84l33.13-45.6c1.24-1.71,.86-4.1-.85-5.34-1.71-1.24-4.1-.86-5.34,.85" fill="#fff"/><path d="M209.26,373.45l-8.71,27.2c-.64,2.01,.46,4.17,2.48,4.81,2.01,.64,4.16-.46,4.81-2.48l8.71-27.2c.64-2.01-.46-4.16-2.48-4.81-2.01-.64-4.17,.46-4.81,2.48" fill="#fff"/><path d="M249.09,380.35v47.43c0,1.78,1.71,3.22,3.82,3.22s3.82-1.44,3.82-3.22v-47.43c0-1.78-1.71-3.22-3.82-3.22s-3.82,1.44-3.82,3.22" fill="#fff"/><path d="M291.75,370.98c-2.01,.65-3.11,2.81-2.45,4.82l8.71,26.8c.65,2.01,2.81,3.11,4.82,2.45,2.01-.65,3.11-2.81,2.45-4.82l-8.71-26.8c-.65-2.01-2.81-3.11-4.82-2.46" fill="#fff"/><path d="M326.79,353.13c-1.71,1.24-2.09,3.63-.85,5.34l33.12,45.6c1.24,1.71,3.63,2.09,5.34,.85,1.71-1.24,2.08-3.63,.84-5.34l-33.12-45.59c-1.24-1.71-3.63-2.09-5.34-.85" fill="#fff"/><path d="M379.17,343.19c1.24-1.71,.86-4.1-.85-5.34l-18.39-13.36c-1.71-1.24-4.1-.86-5.34,.85-1.24,1.7-.86,4.1,.85,5.34l18.39,13.37c1.71,1.24,4.1,.86,5.34-.85" fill="#fff"/><path d="M433.31,310.07c.65-2.01-.45-4.17-2.45-4.82l-53.6-17.42c-2.01-.65-4.17,.44-4.82,2.45-.65,2.01,.44,4.17,2.45,4.82l53.6,17.42c2.01,.65,4.17-.44,4.82-2.45" fill="#fff"/><path d="M410.66,255.28c2.11,0,3.82-1.71,3.82-3.82s-1.71-3.82-3.82-3.82h-28.25c-2.11,0-3.82,1.71-3.82,3.82s1.71,3.82,3.82,3.82h28.25Z" fill="#fff"/><path d="M372.44,212.62c.65,2.01,2.81,3.11,4.82,2.45l53.6-17.41c2.01-.65,3.11-2.81,2.45-4.82-.65-2.01-2.81-3.11-4.82-2.46l-53.6,17.42c-2.01,.65-3.11,2.81-2.45,4.82" fill="#fff"/><path d="M354.59,177.59c1.24,1.71,3.63,2.09,5.34,.85l24.73-17.97c1.71-1.24,2.09-3.63,.85-5.34-1.24-1.71-3.63-2.09-5.34-.85l-24.73,17.97c-1.71,1.24-2.09,3.63-.85,5.34" fill="#fff"/><path d="M326.79,149.79c1.71,1.24,4.1,.86,5.34-.85l33.13-45.59c1.24-1.71,.86-4.1-.85-5.34-1.71-1.24-4.1-.86-5.34,.84l-33.13,45.6c-1.24,1.71-.86,4.1,.85,5.34" fill="#fff"/><path d="M291.75,131.94c2.01,.65,4.17-.45,4.82-2.45l9.79-30.13c.65-2.01-.45-4.17-2.45-4.82-2.01-.65-4.17,.45-4.82,2.46l-9.79,30.13c-.65,2.01,.45,4.17,2.45,4.82" fill="#fff"/><path d="M252.92,154.46c-26.8,0-51.02,10.85-68.58,28.41-17.56,17.56-28.41,41.79-28.41,68.58,0,26.8,10.85,51.02,28.41,68.58,17.56,17.56,41.79,28.41,68.58,28.41,26.8,0,51.02-10.85,68.59-28.41,17.56-17.56,28.41-41.79,28.41-68.58s-10.85-51.02-28.41-68.58c-17.57-17.56-41.79-28.41-68.59-28.41" fill="#fff"/><rect x="53.5" y="67" width="393" height="366" fill="none"/></g></g><g id="i"/><g id="j"/><g id="k"/><g id="l"/><g id="m"/></svg>