<?xml version="1.0" encoding="UTF-8"?><svg id="Environment" xmlns="http://www.w3.org/2000/svg" viewBox="0 0 500 500"><path d="M400.56,253.88s-40.61-18.11-103.79,20.83c0,0,27.98-102.34-13.54-168.45,0,0,17.98,95.02-1.41,154.9-9.6-23.3-38.54-30.15-38.54-30.15,0,0,10.5,10.53,19.83,23.41,5.54,7.64,7.98,19.78,9.07,28.41-25.51,43.2-50.37-2.03-51.22-20.8-.9-19.92,7.22-81.51-37.91-121.36,0,0,27.98,52.53,19.85,116.83,0,0-18.95-21.74-48.74-26.26-29.78-4.53-47.83,0-47.83,0,0,0,74.91,5.43,105.6,66.11,30.69,60.68,29.78,96,10.83,160.31h71.3s-44.23-87.85-3.61-143.1c40.62-55.25,93.86-59.77,110.11-60.68Z" fill="#fff"/><path d="M209.86,127.56s15.51-22.1,.57-49.23c-11.23-20.39-41.64-21.9-41.64-21.9,0,0-19.71,46.64,41.06,71.13Z" fill="#fff"/><path d="M147.33,325.98s15.28,7.07,30.2-5.2c11.22-9.22,8.71-28.14,8.71-28.14,0,0-30.77-6.89-38.91,33.34Z" fill="#fff"/><path d="M97.28,216.57s-13.83-18.68-39.96-13.73c-19.64,3.72-29.07,28.27-29.07,28.27,0,0,32.7,28.73,69.03-14.54Z" fill="#fff"/><path d="M337.11,57.51s-25.96,4.16-33.69,22.73c-10.28,24.69,5.1,42.2,5.1,42.2,49.87-26.75,28.59-64.92,28.59-64.92Z" fill="#fff"/><path d="M316.36,157.43s28.6,19.69,64.13,.33c26.71-14.56,29.07-53.53,29.07-53.53,0,0-60.51-24.88-93.2,53.2Z" fill="#fff"/><path d="M359.65,284.53s-3.3,33.35,29.31,53.49c24.52,15.14,58.26-1.85,58.26-1.85,0,0-7.09-62.4-87.57-51.63Z" fill="#fff"/><path d="M390.32,227.25s39.58,26.73,73.15-25.46c0,0-17.65-18.41-45.41-9.38-20.88,6.79-27.73,34.83-27.73,34.83Z" fill="#fff"/><path d="M250.86,199.84s32.45-23.53,1.22-65.19c0,0-19.57,8.62-20.52,33.18-.72,18.46,19.3,32.01,19.3,32.01Z" fill="#fff"/><path d="M57.89,292.96s28.37,24.98,55.91,16.55c36.62-11.22,41.81-44.33,41.81-44.33-75.18-30.8-97.72,27.79-97.72,27.79Z" fill="#fff"/><path d="M176.74,207.99s2.97-34.68-31.34-56.14c-25.79-16.13-60.74,1.03-60.74,1.03,0,0,8.29,65.09,92.09,55.11Z" fill="#fff"/><path d="M331.08,223.09s15.28,7.07,30.2-5.2c11.22-9.22,8.71-28.14,8.71-28.14,0,0-30.77-6.89-38.92,33.34Z" fill="#fff"/><path d="M421.02,266.39s8.99,14.27,28.16,12.13c14.41-1.61,22.57-18.85,22.57-18.85,0,0-22.08-22.59-50.73,6.71Z" fill="#fff"/><path d="M269.39,67.98c.98-14.52-14.47-25.64-14.47-25.64,0,0-26.08,17.79-2.43,51.29,0,0,15.6-6.33,16.9-25.65Z" fill="#fff"/></svg>