<?xml version="1.0" encoding="UTF-8"?><svg id="CSU_Fort_Collins" xmlns="http://www.w3.org/2000/svg" viewBox="0 0 500 500"><path d="M366.02,253.88c-5.06,3.73-12.7,4.02-16.72,10.11-3.5,5.18-6.1,13.07-7.01,20.22-1.53,13.73-1.41,30.98-10.9,42.38-1.92-6.77,3.01-21.92,3.23-41.47,.13-7.28,2.74-15.55,7.15-21.01-7.88-.66-8.16,.38-8.83-2.08-.66-2.47,.79-5.18,2.59-7.38,5.84-6.61,14.02-3.1,21.14-5.44,4.78-1.7,12.19-4.16,12.74-10.88,.22-4.53-14.04-5.6-14.04-5.6-11.41,.91-10.24,7.39-18.14,8.03-6.46,.51-9.07-6.33-11.13-10.5-3.14-6.61-6.77-20.74,6.33-18.66,6.99,1.15,8.33,11.3,3.01,17.38,4.91-.51,12.03-7.16,28.89-1.84,5.8,1.84,12.43,4.18,13.34,11.68,.62,5.57-6.88,11.53-11.66,15.04m-158.79,84.48c-9.69-14.09-17.47-29.13-20.84-38.22-5.7-12.18-8.14-31.47-7.78-44.58,.89-6.33,2.34-14.37,8.16-17.74,3.61-1.95,8.56-2.88,12.98-1.28,6.61,1.81,8.78,7.87,12.54,13.33,3.8,5.7,10.02,9.71,15.19,11.77,3.23,7.54-2.34,25.28-7.63,33.46-2.88,6.08-15.3,20.85-12.61,43.26m1.46-65.8c3.5-14.02-12.28-31.89-18.44-26.32-4.62,4.29-4.91,11.28,.13,14.53,3.1,1.79,9.73,.88,12.34,5.42,3.63,5.97,4.42,6.86,5.97,6.37m61.28,82.54c-6.57,.62-13.82,2.19-19.6,2.06-5.84,.13-13.05-1.44-19.66-2.06-1.04-.11-1.83,.62-1.83,.62-3.81,8.23,18.22,12.72,21.41,12.61,3.18,.11,25.34-4.38,21.52-12.61,0,0-.8-.73-1.84-.62m-100.67-143.47c-6.88,1.15-8.18,11.3-2.99,17.38-4.78-.51-11.94-7.16-28.77-1.84-5.82,1.84-12.47,4.18-13.34,11.68-.66,5.57,6.86,11.53,11.65,15.04,4.93,3.73,12.72,4.02,16.72,10.11,3.36,5.18,6.08,13.07,6.99,20.22,1.57,13.73,1.3,30.98,10.9,42.38,1.79-6.77-3.12-21.92-3.23-41.47-.15-7.28-2.87-15.55-7.12-21.01,7.89-.66,8.01,.38,8.65-2.08,.77-2.47-.77-5.18-2.57-7.38-5.73-6.61-13.85-3.1-21.14-5.44-4.78-1.7-12.16-4.16-12.56-10.88-.27-4.53,14.02-5.6,14.02-5.6,11.39,.91,10.07,7.39,17.96,8.03,6.52,.51,9.24-6.33,11.32-10.5,3.1-6.61,6.72-20.74-6.48-18.66m81.12,71.68h-.25c-6.21,.15-9.53,5.38-15.32,11.43-9.97,10.86-30.46,37.93-15.53,50.76,6.63,5.71,15.3,9.6,27.21,5.95,2.98-2.04,1.3-8.14-.24-10.86-5.6-7.27-14.29-4.42-16.74-8.05-2.35-3.49-.79-6.21,.62-8.01,2.1-2.61,5.48-1.95,8.31-1.19,5.06,1.17,8.51,3.27,11.68,6.37v.26s.07-.09,.09-.13c.05,.04,.13,.09,.16,.13v-.26c3.03-3.1,6.61-5.22,11.65-6.37,2.72-.77,6.22-1.42,8.16,1.19,1.59,1.81,3.01,4.53,.69,8.01-2.5,3.63-11.04,.78-16.63,8.05-1.53,2.72-3.36,8.82-.38,10.86,12.05,3.65,20.61-.24,27.2-5.95,15.04-12.83-5.42-39.9-15.53-50.76-5.6-6.04-9.11-11.28-15.15-11.43m70.88-27.75c.51,13.11-2.08,32.4-7.78,44.58-3.25,9.09-11.02,24.13-20.73,38.22,2.59-22.41-9.71-37.18-12.7-43.26-5.31-8.18-10.9-25.92-7.65-33.46,5.18-2.06,11.41-6.08,15.17-11.77,3.87-5.46,5.97-11.52,12.58-13.33,4.42-1.61,9.33-.67,12.94,1.28,5.86,3.38,7.39,11.41,8.18,17.74m-11.66-9.33c-6.08-5.57-21.89,12.3-18.38,26.32,1.53,.49,2.32-.4,5.95-6.37,2.72-4.54,9.31-3.63,12.3-5.42,5.06-3.25,4.93-10.24,.13-14.53m121.6,3.78c0,99.75-81.39,181.29-181.18,181.29S68.76,349.76,68.76,250.01,150.14,68.7,250.05,68.7s181.18,81.39,181.18,181.31m-17.63,55.55c-4.82,10.75-35.47,55.71-49.17,56.37-13.89,.79,13.71-36.52,32.69-52.09,4.45-3.74,9.8-8.18,10.88-15.19,.79-5.04-1.82-8.43-6.81-8.65-7.59-.29-27.38,9.98-27.62,9.58,34.13-61.55-18.22-92.65,3.54-106.12,7.45-4.82,23.69,0,32.44,1.28-80.75-47.68-94.88-.13-119.23,21.76-3.8,3.52-20.95,0-24.35-4.01-4.33-5.17-12.83-23.84-3.12-36.16,13.65-17.14,67.99-66.32,119.65-29.22-27.64-38.04-82.89-64.96-132.3-63.59h-.15c-25.15-.71-53.04,6.08-78.51,19.15-22.58,11.55-41.51,27.18-54.05,44.45,51.53-37.09,106,12.08,119.54,29.22,9.82,12.32,1.19,30.99-3.14,36.16-3.27,4.01-20.43,7.54-24.21,4.01-24.35-21.89-38.48-69.43-119.25-21.76,8.8-1.28,24.86-6.1,32.47-1.28,21.74,13.47-30.76,44.57,3.5,106.12-.22,.4-20.01-9.87-27.58-9.58-4.98,.22-7.63,3.61-6.81,8.65,1.04,7.01,6.26,11.44,10.86,15.19,18.95,15.57,46.58,52.88,32.58,52.09-13.64-.66-44.26-45.61-49.1-56.37,5.66,18.76,16.77,36.51,28.16,51.95,6.02,8.16,12.96,14.9,21.59,18.03,5.64,2.19,11.39,3.1,16.99,.53,4.34-1.95,7.21-6.39,8.01-11.3,1.04-7.27-3.03-15.83-6.7-21.5-4.8-8.16-15.83-22.4-28.66-31.87-18.2-13.51-30.89-17.25-26.19-20.35,3.3-2.21,20.59,7.27,23.97,9.07,19.24,9.97,46.09,38.88,49.23,60.25,2.17,14.73-12.41,25.83-24.93,25.26,41.44,33.4,86.8,34.52,102.11,34.88h.13c15.17-.35,60.45-1.46,102.05-34.88-12.54,.53-27.09-10.53-24.92-25.26,3.14-21.37,29.86-50.29,49.23-60.25,3.41-1.81,20.66-11.28,23.95-9.07,4.69,3.1-7.98,6.84-26.21,20.35-12.8,9.47-23.91,23.71-28.77,31.87-3.54,5.68-7.58,14.24-6.57,21.5,.82,4.91,3.56,9.35,7.99,11.3,5.62,2.57,11.39,1.66,16.9-.53,8.78-3.14,15.7-9.87,21.7-18.03,11.28-15.44,22.54-33.18,28.15-51.95m-56.27,79.16h0Zm31.82-236.4" fill="#fff"/></svg>