<?xml version="1.0" encoding="UTF-8"?>
<svg id="CSU_Global" xmlns="http://www.w3.org/2000/svg" viewBox="0 0 500 500">
    <path
        d="M210.08,197.15c-21.81,21.81-21.81,57.35,0,79.19l39.92,39.86h0l28.84-28.81-28.84-29.04-2.97-2.94c-10.41-10.46-10.38-27.43,0-37.86l2.97-3,61.59,61.91c2.85,2.88,4.56,6.85,4.56,10.94s-1.65,8-4.56,10.91l-50.71,50.68c-2.5,2.59-5.91,4.18-9.58,4.5-.53,.06-.91,.06-1.29,.06-4.05,0-8.03-1.62-10.94-4.56l-50.8-50.74c-14.7-14.79-23.46-33.72-25.08-54.18l-66.32,66.32c9.09,17.99,24.34,38.72,48.36,58.91,44.3,37.31,104.77,61.56,104.77,61.56,0,0,60.5-24.25,104.83-61.56,23.99-20.23,39.22-40.98,48.39-59.03L250,157.25l-39.92,39.89Z"
        fill="#fff" />
    <path
        d="M408.63,106.54c-43.83-17.67-84.49-32.31-125.94-37.39-12.61,5.03-20.11,7.61-32.69,10.05-12.55-2.44-20.05-5.03-32.66-10.05-41.45,5.09-82.14,19.73-125.97,37.39-4.32,1.68-7.14,5.85-7.14,10.55V255.38c0,12,.67,18.52,1.32,22.52L239.06,124.44c2.91-2.94,6.88-4.53,10.94-4.53,.41,0,.79,0,1.23,.09,3.68,.26,7.03,1.76,9.64,4.44l153.6,153.43c.65-4.06,1.29-10.55,1.29-22.49V117.1c0-4.71-2.79-8.88-7.15-10.55"
        fill="#fff" />
    <polygon points="250 316.2 278.84 287.39 250 258.35 250 316.2 250 316.2" fill="#fff" />
</svg>