<?xml version="1.0" encoding="UTF-8"?><svg id="Health" xmlns="http://www.w3.org/2000/svg" viewBox="0 0 500 500"><path d="M445.12,181.42h0s0-.06,0-.09c0-61.37-48.23-111.12-107.73-111.12h-.17c-.27,0-.54,.03-.82,.03-1.7,.02-3.39,.06-5.07,.16-1.02,.05-2.02,.15-3.03,.24-.93,.08-1.86,.16-2.79,.27-1.2,.13-2.39,.29-3.57,.47-.66,.1-1.32,.2-1.98,.31-1.36,.22-2.71,.47-4.04,.74-.29,.06-.58,.13-.87,.19-26.61,5.76-49.63,21.61-65.06,43.54l.11,.08c-5.19,7.4-9.52,15.48-12.84,24.09-27.91,6.11-48.91,31.7-48.91,62.28,0,35.1,27.69,63.66,61.72,63.66s61.73-28.56,61.73-63.66c0-23.99-12.94-44.92-31.98-55.77,10.42-18.48,28.95-31.49,50.58-33.82,.17-.02,.33-.03,.5-.05,.89-.09,1.78-.16,2.68-.21,.57-.03,1.14-.05,1.71-.07,.67-.02,1.35-.05,2.02-.05h.17c.6,0,1.2,.03,1.8,.05,.59,.02,1.18,.03,1.77,.06,.51,.03,1,.08,1.51,.12,.63,.05,1.26,.09,1.89,.16,.41,.04,.82,.11,1.23,.16,.71,.09,1.42,.18,2.12,.29,.28,.05,.56,.11,.84,.16,.83,.15,1.66,.3,2.48,.47,.1,.02,.19,.05,.29,.07,26.53,5.88,47.24,28.11,51.69,55.93,.03,.19,.07,.37,.1,.56,.12,.76,.2,1.53,.29,2.3,.04,.39,.1,.77,.14,1.16,.07,.64,.11,1.29,.15,1.94,.04,.52,.09,1.03,.12,1.55,.03,.59,.04,1.19,.05,1.77,.01,.58,.04,1.15,.04,1.73-.02,.45-.03,.9-.04,1.35l-.02,1.26,.05,1.26c.04,.9,.68,22.47-18.55,57.92-17.55,32.35-55.2,82.12-135.42,138.98-80.22-56.86-117.87-106.63-135.42-138.98-19.23-35.45-18.59-57.02-18.55-57.92l.05-1.26-.02-1.26c0-.5-.02-1-.04-1.49,.18-37.61,29.82-68.17,66.3-68.33h.28c11.37,0,20.58-9.5,20.58-21.22s-9.21-21.22-20.58-21.22c-59.49,0-107.73,49.75-107.73,111.12,0,.63,.03,1.25,.05,1.88-.61,15.02,2.31,118.53,184.9,242.79,2.73,2.36,6.25,3.79,10.09,3.79,.03,0,.06,0,.09,0s.06,0,.09,0c3.84,0,7.36-1.43,10.09-3.79,182.6-124.25,185.52-227.77,184.91-242.79,.01-.59,.04-1.19,.04-1.78m-195.04,42.41c-11.35,0-20.57-9.52-20.57-21.22s8.9-20.85,19.95-21.19h1.25c11.06,.34,19.95,9.7,19.95,21.19s-9.23,21.22-20.58,21.22" fill="#fff"/></svg>