<?xml version="1.0" encoding="UTF-8"?><svg xmlns="http://www.w3.org/2000/svg" viewBox="0 0 500 500"><g id="a"/><g id="b"/><g id="c"><path d="M371.09,388.98h-21.69c15.39-23.44,63.08-115.61-67.56-204.24,.18-1.35,.29-2.73,.29-4.12,0-14.57-10.02-27.12-24.51-33.08l16.25-21.2-8.26-4.82,24.77-32.39-39.74-21.01-25.29,32.39-12.9-5.69-90.32,119.94,8.77,5.25-10.32,13.57,38.19,22.76,10.84-13.57,10.32,6.13,30.84-40.24c7.56,5.43,17.32,8.72,28,8.72,6.84,0,13.29-1.38,19.04-3.78,25.1,27.46,89.66,112.74-8.33,175.37h-80.58c-4.58,0-8.32,3.18-8.32,7.06v28.78c0,3.88,3.74,7.06,8.32,7.06h202.18c4.58,0,8.32-3.18,8.32-7.06v-28.78c0-3.88-3.74-7.06-8.32-7.06ZM238.77,192.27c-7.59,0-13.74-5.22-13.74-11.65s6.15-11.65,13.74-11.65,13.74,5.22,13.74,11.65-6.15,11.65-13.74,11.65Z" fill="#fff"/></g><g id="d"/><g id="e"/><g id="f"/><g id="g"/><g id="h"/><g id="i"/><g id="j"/><g id="k"/><g id="l"/><g id="m"/></svg>