<?xml version="1.0" encoding="utf-8"?>
<!-- Generator: Adobe Illustrator 26.2.1, SVG Export Plug-In . SVG Version: 6.00 Build 0)  -->
<svg version="1.1" id="Layer_1" xmlns="http://www.w3.org/2000/svg" xmlns:xlink="http://www.w3.org/1999/xlink" x="0px" y="0px"
	 viewBox="0 0 1000 1000" style="enable-background:new 0 0 1000 1000;" xml:space="preserve">
<style type="text/css">
	.st0{fill:#FFFFFF;}
</style>
<g>
	<path class="st0" d="M891.5,412.9c-2.3,0-4.6,0.1-6.8,0.3c-27.9,2.9-56.1,16.2-79.4,37.4c-31.4,28.6-55.6,67-79,104.1
		c-3,4.8-6,9.5-9,14.2c-1.4,2.2-2.8,4.6-4.2,6.9c-6.2,10.4-13.3,22.3-24.5,29c-5.5,3.3-10.9,5-16.1,5c-14.3,0-25.7-12.9-27.8-31.4
		c-2.9-26.5,2.3-52.8,7.3-78.2c2.4-12.3,5-25.1,6.5-37.5c2.4-20.3,4.2-41,5.9-61.1c1.7-19.9,3.5-40.6,5.9-60.8
		c2-17.1,4.3-34.8,6.8-54c3.8-28.6,8-58.8,13.7-98c0.9-6.2,2.3-12.8,3.7-19.7c4.3-20.7,9.3-44.2,1.1-61.2
		C689.7,95.4,673.1,86,657,86c-5,0-9.6,0.9-13.6,2.7c-10.8,4.9-18.4,17.2-22.4,36.6c-3.7,17.6-7.6,36.5-11,55.2
		c-5.3,28.6-8.9,58.2-12.4,86.7l-0.8,6.3c-2,16.2-3.9,32.3-5.8,48.5c-1.5,12.8-3,21.9-4.9,33.3c-1.6,9.5-3.6,21.4-6.1,38.8
		c-0.6,4-1,8.4-1.5,13.1c-2.2,20.8-4.5,42.4-17.6,47.6c-3.3,1.3-6.4,2-9.2,2c-12.6,0-20.2-11.7-20.8-32.1
		c-2-62.9,4.5-126.8,11.9-192.2c6.2-54.8,10.8-108.3-0.5-160.3c-4.1-19.1-15.6-28.3-35-28.3c-6.3,0-13.5,1-21.4,3
		c-15.4,3.9-19,23.1-20.5,39.5c-1.2,13.3-1.3,26.9-1.5,40.2c-0.1,12.8-0.3,26-1.3,39.1c-1.4,17.3-3.9,34.9-6.2,51.8
		c-3.2,22.5-6.4,45.8-7.2,68.6c-1.3,38.7-2.8,68.5-4.9,96.4c-0.4,4.7-0.6,9.6-0.8,14.3c-0.4,8-0.7,16.3-1.9,24.5l-0.1,0.7
		c-3.5,26.4-8.9,37.6-17.8,37.6c-3,0-5.8-1.4-8.4-4.2c-7.6-8.1-9.7-21.2-11.4-31.7c-0.3-2-0.6-3.9-1-5.7c-2.7-14.3-4.7-28.7-6.2-41
		c-7.8-61.2-17.7-120.5-26.3-170.5c-3.1-18.1-4.5-31.4-5.8-43.2c-1.5-13.7-2.7-25.6-6.3-41.3c-5.2-23.3-22.5-38.3-44-38.3
		c-6.9,0-14,1.6-20.9,4.7c-31,13.9-28.5,36.9-25.4,66.1c0.7,6.5,1.4,13.1,1.8,19.9c0,0.1,0,0.2,0,0.3c0,0.2,2.7,51.8,13.4,121.4
		c1.4,8.9,2.9,18.5,4.5,28.4c14,87.2,23.4,155.4,8.6,174.9c-4,5.3-8.7,7.9-14,7.9c-16.8,0-30.2-28.8-32.9-35
		c-9.8-19.6-18.7-40.1-27.2-59.9c-14-32.5-28.6-66-47.5-96.2c-13.8-22.1-30.5-46-54-51.1c-4.2-0.9-8.1-1.4-11.6-1.4
		c-14.1,0-23.4,7.1-28.5,21.8c-7.2,20.6,3,43.7,10.4,60.5c6.2,14.2,13.3,28.4,20.2,42.1c4.1,8.3,8.4,16.8,12.5,25.3
		c6,12.6,12.6,25.4,19,37.7c13,25.2,26.5,51.3,36.5,78.6c1.8,4.9,3.5,9.8,4.9,14.5c10.6,34,10.1,66.2,9.5,100.2
		c-0.1,7.1-0.2,14.2-0.3,21.4c-0.1,61.7,3.8,142.2,35.9,217.7c25,58.8,86.9,91,200.9,104.3c89.2,10.4,167.7-37.3,232.5-141.4
		c7.8-12.4,15.6-25.8,25.4-43.4l7.4-13.2c25.4-45.6,51.6-92.8,83-136.1c12.1-16.7,24.7-33.5,37.5-49.9c22.3-28.5,45.9-56.8,70.1-84
		c4.2-4.7,8.7-9.3,13-13.6c6.1-6.2,12.4-12.7,17.9-19.5c19-24,24.1-43.1,15.1-56.8C923.7,417.3,905.7,412.9,891.5,412.9z"/>
</g>
</svg>
