<?xml version="1.0" encoding="utf-8"?>
<!-- Generator: Adobe Illustrator 26.2.1, SVG Export Plug-In . SVG Version: 6.00 Build 0)  -->
<svg version="1.1" id="Layer_1" xmlns="http://www.w3.org/2000/svg" xmlns:xlink="http://www.w3.org/1999/xlink" x="0px" y="0px"
	 viewBox="0 0 1010.8 1022.7" style="enable-background:new 0 0 1010.8 1022.7;" xml:space="preserve">
<style type="text/css">
	.st0{fill:#FFFFFF;}
</style>
<g>
	<path class="st0" d="M816.2,521.7c-13.5,10-34,10.8-44.8,27.1c-9.4,13.9-16.3,35-18.8,54.2c-4.1,36.8-3.8,83-29.2,113.6
		c-5.1-18.1,8.1-58.7,8.7-111.1c0.3-19.5,7.3-41.7,19.2-56.3c-21.1-1.8-21.9,1-23.7-5.6c-1.8-6.6,2.1-13.9,6.9-19.8
		c15.6-17.7,37.6-8.3,56.6-14.6c12.8-4.5,32.7-11.1,34.1-29.1c0.6-12.1-37.6-15-37.6-15c-30.6,2.4-27.4,19.8-48.6,21.5
		c-17.3,1.4-24.3-17-29.8-28.1c-8.4-17.7-18.1-55.6,17-50c18.7,3.1,22.3,30.3,8.1,46.6c13.2-1.4,32.2-19.2,77.4-4.9
		c15.5,4.9,33.3,11.2,35.7,31.3C849.1,496.3,829,512.3,816.2,521.7 M390.8,748.1c-26-37.8-46.8-78.1-55.8-102.4
		c-15.3-32.6-21.8-84.3-20.8-119.4c2.4-17,6.3-38.5,21.9-47.5c9.7-5.2,22.9-7.7,34.8-3.4c17.7,4.8,23.5,21.1,33.6,35.7
		c10.2,15.3,26.8,26,40.7,31.5c8.7,20.2-6.3,67.7-20.4,89.6C416.9,648.4,383.6,688,390.8,748.1 M394.7,571.8
		c9.4-37.6-32.9-85.4-49.4-70.5c-12.4,11.5-13.2,30.2,0.3,38.9c8.3,4.8,26.1,2.3,33.1,14.5C388.4,570.7,390.6,573.1,394.7,571.8
		 M558.9,792.9c-17.6,1.7-37,5.9-52.5,5.5c-15.6,0.3-35-3.9-52.7-5.5c-2.8-0.3-4.9,1.7-4.9,1.7c-10.2,22.1,48.8,34.1,57.4,33.8
		c8.5,0.3,67.9-11.7,57.7-33.8C563.8,794.6,561.7,792.6,558.9,792.9 M289.2,408.5c-18.4,3.1-21.9,30.3-8,46.6
		c-12.8-1.4-32-19.2-77.1-4.9c-15.6,4.9-33.4,11.2-35.8,31.3c-1.8,14.9,18.4,30.9,31.2,40.3c13.2,10,34.1,10.8,44.8,27.1
		c9,13.9,16.3,35,18.7,54.2c4.2,36.8,3.5,83,29.2,113.6c4.8-18.1-8.4-58.7-8.7-111.1c-0.4-19.5-7.7-41.7-19.1-56.3
		c21.1-1.8,21.5,1,23.2-5.6c2.1-6.6-2.1-13.9-6.9-19.8c-15.4-17.7-37.1-8.3-56.6-14.6c-12.8-4.5-32.6-11.1-33.6-29.1
		c-0.7-12.1,37.6-15,37.6-15c30.5,2.4,27,19.8,48.1,21.5c17.5,1.4,24.7-17,30.3-28.1C314.8,440.8,324.5,402.9,289.2,408.5
		 M506.5,600.6L506.5,600.6c-0.1,0-0.3,0-0.4,0h-0.2l0,0c-16.6,0.4-25.5,14.4-41,30.6c-26.7,29.1-81.6,101.6-41.6,136
		c17.8,15.3,41,25.7,72.9,15.9c8-5.5,3.5-21.8-0.6-29.1c-15-19.5-38.3-11.8-44.8-21.6c-6.3-9.3-2.1-16.6,1.7-21.5
		c5.6-7,14.7-5.2,22.3-3.2c13.5,3.1,22.8,8.8,31.3,17.1v0.7c0.1-0.1,0.2-0.2,0.2-0.3c0.1,0.1,0.3,0.2,0.4,0.3v-0.7
		c8.1-8.3,17.7-14,31.2-17.1c7.3-2.1,16.7-3.8,21.9,3.2c4.3,4.8,8.1,12.1,1.9,21.5c-6.7,9.7-29.6,2.1-44.6,21.6
		c-4.1,7.3-9,23.6-1,29.1c32.3,9.8,55.2-0.6,72.9-15.9c40.3-34.4-14.5-106.9-41.6-136C532.1,615,522.7,601,506.5,600.6 M696.4,526.2
		c1.4,35.1-5.6,86.8-20.8,119.4C666.9,670,646,710.3,620,748.1c6.9-60.1-26-99.6-34-115.9c-14.2-21.9-29.2-69.4-20.5-89.6
		c13.9-5.5,30.6-16.3,40.6-31.5c10.4-14.6,16-30.9,33.7-35.7c11.8-4.3,25-1.8,34.7,3.4C690.2,487.7,694.3,509.3,696.4,526.2
		 M665.2,501.2c-16.3-14.9-58.6,33-49.2,70.5c4.1,1.3,6.2-1.1,15.9-17.1c7.3-12.2,24.9-9.7,33-14.5
		C678.4,531.5,678,512.7,665.2,501.2 M991,511.4c0,267.3-218.1,485.7-485.4,485.7c-267.7,0-485.7-218.5-485.7-485.7
		c0-267.7,218-485.8,485.7-485.8C772.9,25.6,991,243.6,991,511.4 M943.7,660.2c-12.9,28.8-95,149.3-131.7,151
		c-37.2,2.1,36.7-97.9,87.6-139.6c11.9-10,26.3-21.9,29.1-40.7c2.1-13.5-4.9-22.6-18.2-23.2c-20.3-0.8-73.4,26.8-74,25.7
		c91.5-164.9-48.8-248.2,9.5-284.3c20-12.9,63.5,0,86.9,3.4c-216.4-127.7-254.2-0.3-319.5,58.3c-10.2,9.4-56.1,0-65.2-10.8
		c-11.6-13.8-34.4-63.9-8.4-96.9c36.6-45.9,182.2-177.7,320.6-78.3c-74-101.9-222.1-174.1-354.5-170.4h-0.1h-0.2
		c-67.4-1.9-142.1,16.3-210.3,51.3c-60.5,31-111.2,72.8-144.8,119.1c138.1-99.4,284,32.4,320.3,78.3c26.3,33,3.2,83-8.4,96.9
		c-8.8,10.8-54.7,20.2-64.9,10.8c-65.2-58.6-103.1-186-319.5-58.3c23.6-3.4,66.6-16.3,87-3.4c58.2,36.1-82.4,119.4,9.4,284.3
		c-0.6,1.1-53.6-26.5-73.9-25.7c-13.4,0.6-20.4,9.7-18.2,23.2c2.8,18.8,16.8,30.7,29.1,40.7c50.8,41.7,124.8,141.7,87.3,139.6
		C162,809.4,80,689,67,660.2c15.2,50.3,44.9,97.8,75.5,139.2c16.1,21.9,34.7,39.9,57.9,48.3c15.1,5.9,30.5,8.3,45.5,1.4
		c11.6-5.2,19.3-17.1,21.5-30.3c2.8-19.5-8.1-42.4-17.9-57.6c-12.9-21.9-42.4-60-76.8-85.4c-48.8-36.2-82.8-46.2-70.2-54.5
		c8.9-5.9,55.2,19.5,64.2,24.3c51.5,26.7,123.5,104.2,131.9,161.4c5.8,39.5-33.3,69.2-66.8,67.7c111,89.5,232.5,92.5,273.6,93.5h0.1
		h0.2c40.6-0.9,162-3.9,273.4-93.5c-33.6,1.4-72.6-28.2-66.8-67.7c8.4-57.3,80-134.7,131.9-161.4c9.1-4.8,55.4-30.2,64.2-24.3
		c12.6,8.3-21.4,18.3-70.2,54.5c-34.3,25.4-64.1,63.5-77.1,85.4c-9.5,15.2-20.3,38.1-17.6,57.6c2.2,13.2,9.5,25,21.4,30.3
		c15.1,6.9,30.5,4.4,45.3-1.4c23.5-8.4,42.1-26.5,58.2-48.3C898.5,758,928.7,710.5,943.7,660.2 M792.9,872.3L792.9,872.3
		L792.9,872.3L792.9,872.3z M878.2,238.9"/>
</g>
</svg>
