<?xml version="1.0" encoding="utf-8"?>
<!-- Generator: Adobe Illustrator 26.2.1, SVG Export Plug-In . SVG Version: 6.00 Build 0)  -->
<svg version="1.1" id="Layer_1" xmlns="http://www.w3.org/2000/svg" xmlns:xlink="http://www.w3.org/1999/xlink" x="0px" y="0px"
	 viewBox="0 0 1010.8 1022.7" style="enable-background:new 0 0 1010.8 1022.7;" xml:space="preserve">
<style type="text/css">
	.st0{fill:#FFFFFF;}
</style>
<g>
	<path class="st0" d="M403.9,377c-55.4,55.4-55.4,145.8,0,201.3l101.5,101.3l0,0l73.3-73.2l-73.3-73.8l-7.5-7.5
		c-26.5-26.6-26.4-69.7,0-96.2l7.5-7.6l156.6,157.4c7.2,7.3,11.6,17.4,11.6,27.8c0,10.5-4.2,20.3-11.6,27.7L533,762.9
		c-6.4,6.6-15,10.6-24.4,11.4c-1.3,0.2-2.3,0.2-3.3,0.2c-10.3,0-20.4-4.1-27.8-11.6L348.5,634c-37.4-37.6-59.6-85.7-63.7-137.7
		L116.1,664.8c23.1,45.7,61.9,98.4,122.9,149.7C351.7,909.4,505.4,971,505.4,971s153.8-61.6,266.5-156.5c61-51.4,99.7-104.2,123-150
		L505.4,275.6L403.9,377z"/>
	<path class="st0" d="M908.6,146.7c-111.4-44.9-214.8-82.1-320.1-95.1c-32.1,12.8-51.1,19.4-83.1,25.6c-31.9-6.2-51-12.8-83-25.6
		C317,64.6,213.6,101.8,102.2,146.7c-11,4.3-18.2,14.9-18.2,26.8V525c0,30.5,1.7,47.1,3.4,57.2l390.2-390.1
		c7.4-7.5,17.5-11.5,27.8-11.5c1,0,2,0,3.1,0.2c9.3,0.7,17.9,4.5,24.5,11.3l390.4,390c1.6-10.3,3.3-26.8,3.3-57.2V173.5
		C926.8,161.5,919.7,150.9,908.6,146.7"/>
	<polygon class="st0" points="505.4,679.6 578.7,606.4 505.4,532.6 505.4,679.6 	"/>
</g>
</svg>
