<?xml version="1.0" encoding="utf-8"?>
<!-- Generator: Adobe Illustrator 26.2.1, SVG Export Plug-In . SVG Version: 6.00 Build 0)  -->
<svg version="1.1" id="Layer_1" xmlns="http://www.w3.org/2000/svg" xmlns:xlink="http://www.w3.org/1999/xlink" x="0px" y="0px"
	 viewBox="0 0 1000 1000" style="enable-background:new 0 0 1000 1000;" xml:space="preserve">
<style type="text/css">
	.st0{fill:#FFFFFF;}
</style>
<path class="st0" d="M969.6,340L969.6,340c0-0.1,0-0.1,0-0.2c0-143.2-116.1-259.2-259.2-259.2c-0.1,0-0.1,0-0.2,0
	c-0.1,0-0.1,0-0.2,0c-0.7,0-1.3,0.1-2,0.1c-4.1,0-8.2,0.1-12.2,0.4c-2.4,0.1-4.9,0.4-7.3,0.6c-2.2,0.2-4.5,0.4-6.7,0.6
	c-2.9,0.3-5.7,0.7-8.6,1.1c-1.6,0.2-3.2,0.5-4.8,0.7c-3.3,0.5-6.5,1.1-9.7,1.7c-0.7,0.1-1.4,0.3-2.1,0.5
	c-64,13.4-119.4,50.4-156.6,101.6l0.3,0.2c-12.5,17.3-22.9,36.1-30.9,56.2c-67.2,14.2-117.7,74-117.7,145.3
	c0,81.9,66.6,148.5,148.5,148.5c81.9,0,148.5-66.6,148.5-148.5c0-56-31.1-104.8-77-130.1c25.1-43.1,69.7-73.5,121.7-78.9
	c0.4,0,0.8-0.1,1.2-0.1c2.1-0.2,4.3-0.4,6.5-0.5c1.4-0.1,2.7-0.1,4.1-0.2c1.6-0.1,3.2-0.1,4.9-0.1h0h0.4c1.4,0,2.9,0.1,4.3,0.1
	c1.4,0,2.8,0.1,4.3,0.1c1.2,0.1,2.4,0.2,3.6,0.3c1.5,0.1,3,0.2,4.5,0.4c1,0.1,2,0.3,3,0.4c1.7,0.2,3.4,0.4,5.1,0.7
	c0.7,0.1,1.3,0.2,2,0.4c2,0.3,4,0.7,6,1.1c0.2,0,0.5,0.1,0.7,0.2c63.8,13.7,113.7,65.6,124.4,130.5c0.1,0.4,0.2,0.9,0.2,1.3
	c0.3,1.8,0.5,3.6,0.7,5.4c0.1,0.9,0.3,1.8,0.3,2.7c0.2,1.5,0.3,3,0.4,4.5c0.1,1.2,0.2,2.4,0.3,3.6c0.1,1.4,0.1,2.8,0.1,4.1
	c0,1.3,0.1,2.7,0.1,4c0,1-0.1,2.1-0.1,3.1l0,2.9l0.1,2.9c0.1,2.1,1.6,52.4-44.6,135.1C783.7,559,693,675.1,500,807.8
	C307,675.1,216.3,559,174.1,483.5c-46.3-82.7-44.7-133-44.6-135.1l0.1-2.9l0-2.9c0-1.2,0-2.3-0.1-3.5
	c0.4-87.8,71.8-159.1,159.5-159.4c0.2,0,0.4,0,0.7,0v0c27.3,0,49.5-22.2,49.5-49.5c0-27.3-22.2-49.5-49.5-49.5
	c-143.2,0-259.2,116.1-259.2,259.2c0,1.5,0.1,2.9,0.1,4.4c-1.5,35,5.6,276.6,445,566.5c6.6,5.5,15,8.8,24.3,8.8c0.1,0,0.1,0,0.2,0
	c0.1,0,0.1,0,0.2,0c9.2,0,17.7-3.3,24.3-8.8c439.4-289.9,446.4-531.4,445-566.5C969.5,342.8,969.6,341.4,969.6,340z M500.2,439
	c-27.3,0-49.5-22.2-49.5-49.5c0-26.8,21.4-48.6,48-49.4h3c26.6,0.8,48,22.6,48,49.4C549.7,416.7,527.5,439,500.2,439z"/>
</svg>
