<?xml version="1.0" encoding="UTF-8"?><svg id="Layer_1" xmlns="http://www.w3.org/2000/svg" viewBox="0 0 1931.51 311.31"><path d="M808.38,225.78c-14.89,0-26.96,12.07-26.96,26.96s26.96,58.57,26.96,58.57c0,0,26.96-43.68,26.96-58.57s-12.07-26.96-26.96-26.96Zm.35,44.89c-8.97,0-16.25-7.27-16.25-16.24s7.27-16.25,16.25-16.25,16.24,7.27,16.24,16.25-7.27,16.24-16.24,16.24Z" fill="#fff"/><g><path d="M17.87,243.29H55.21v7.33H26.2v16.25h28.42v7.33H26.2v24.67h-8.33v-55.59Z" fill="#fff"/><path d="M65.91,243.29h8.33v55.59h-8.33v-55.59Z" fill="#fff"/><path d="M96.67,256.21v42.67h-8.33v-55.59h8.58l30.25,41.67v-41.67h8.33v55.59h-8.08l-30.76-42.67Z" fill="#fff"/><path d="M149.54,243.29h19.84c17.34,0,28.84,11.84,28.84,27.84s-11.5,27.75-28.84,27.75h-19.84v-55.59Zm19.84,48.26c12.83,0,20.25-9.17,20.25-20.42s-7.17-20.5-20.25-20.5h-11.5v40.92h11.5Z" fill="#fff"/><path d="M249.19,275.63l-21.76-32.34h9.59l16.34,24.84,16.17-24.84h9.67l-21.67,32.34v23.25h-8.33v-23.25Z" fill="#fff"/><path d="M309.89,242.37c16.59,0,28,12.25,28,28.75s-11.42,28.75-28,28.75-28-12.25-28-28.75,11.42-28.75,28-28.75Zm0,7.42c-11.92,0-19.42,9.08-19.42,21.34s7.5,21.34,19.42,21.34,19.42-9.17,19.42-21.34-7.67-21.34-19.42-21.34Z" fill="#fff"/><path d="M349.69,243.29h8.42v33.59c0,9.5,5.25,15.59,15,15.59s14.92-6.08,14.92-15.59v-33.59h8.42v33.76c0,13.83-7.75,22.83-23.34,22.83s-23.42-9.08-23.42-22.75v-33.84Z" fill="#fff"/><path d="M429.32,277.46h-10.42v21.42h-8.33v-55.59h23.42c10.59,0,17.83,6.84,17.83,17.09s-6.75,15.34-13.83,16.25l14.25,22.25h-9.66l-13.25-21.42Zm3.58-26.84h-14v19.5h14c6,0,10.34-3.92,10.34-9.75s-4.34-9.75-10.34-9.75Z" fill="#fff"/><path d="M488.29,284.63c3.75,4.17,9.75,7.84,17.5,7.84,9,0,12.17-4.58,12.17-8.59,0-5.84-6.33-7.5-13.42-9.33-8.92-2.33-19.25-4.92-19.25-16.25,0-9.17,8.09-15.83,19.67-15.83,8.58,0,15.34,2.75,20.25,7.75l-4.83,6.17c-4.25-4.5-10.08-6.5-16.08-6.5s-10.42,3.17-10.42,7.84c0,5,6,6.58,12.92,8.33,9.08,2.42,19.67,5.25,19.67,17.09,0,8.67-6,16.75-21,16.75-9.92,0-17.17-3.58-21.92-8.83l4.75-6.42Z" fill="#fff"/><path d="M550.74,250.62h-17.25v-7.33h42.75v7.33h-17.17v48.26h-8.33v-48.26Z" fill="#fff"/><path d="M610.11,242.37c16.58,0,28,12.25,28,28.75s-11.42,28.75-28,28.75-28-12.25-28-28.75,11.42-28.75,28-28.75Zm0,7.42c-11.92,0-19.42,9.08-19.42,21.34s7.5,21.34,19.42,21.34,19.42-9.17,19.42-21.34-7.67-21.34-19.42-21.34Z" fill="#fff"/><path d="M668.66,277.46h-10.42v21.42h-8.33v-55.59h23.42c10.59,0,17.83,6.84,17.83,17.09s-6.75,15.34-13.83,16.25l14.25,22.25h-9.66l-13.25-21.42Zm3.58-26.84h-14v19.5h14c6,0,10.34-3.92,10.34-9.75s-4.34-9.75-10.34-9.75Z" fill="#fff"/><path d="M717.78,275.63l-21.76-32.34h9.59l16.34,24.84,16.17-24.84h9.67l-21.67,32.34v23.25h-8.33v-23.25Z" fill="#fff"/></g><g><path d="M885.27,243.29h37.34v7.33h-29v16.25h28.42v7.33h-28.42v17.34h29v7.33h-37.34v-55.59Z" fill="#fff"/><path d="M943.05,256.21v42.67h-8.33v-55.59h8.58l30.25,41.67v-41.67h8.34v55.59h-8.09l-30.76-42.67Z" fill="#fff"/><path d="M993.6,271.13c0-17.09,12.67-28.75,28.51-28.75,10.91,0,17.75,5.25,22.08,11.75l-7.08,3.75c-2.92-4.67-8.42-8.08-15-8.08-11.26,0-19.92,8.83-19.92,21.34s8.67,21.34,19.92,21.34c6.58,0,12.08-3.42,15-8.08l7.08,3.75c-4.42,6.5-11.17,11.75-22.08,11.75-15.84,0-28.51-11.67-28.51-28.75Z" fill="#fff"/><path d="M1054.22,243.29h8.42v33.59c0,9.5,5.26,15.59,15.01,15.59s14.92-6.08,14.92-15.59v-33.59h8.42v33.76c0,13.83-7.75,22.83-23.34,22.83s-23.42-9.08-23.42-22.75v-33.84Z" fill="#fff"/><path d="M1115.09,243.29h37.34v7.33h-29v16.25h28.42v7.33h-28.42v17.34h29v7.33h-37.34v-55.59Z" fill="#fff"/><path d="M1172.89,256.21v42.67h-8.34v-55.59h8.59l30.25,41.67v-41.67h8.34v55.59h-8.09l-30.75-42.67Z" fill="#fff"/><path d="M1239.35,250.62h-17.25v-7.33h42.75v7.33h-17.16v48.26h-8.34v-48.26Z" fill="#fff"/><path d="M1293.96,277.46h-10.42v21.42h-8.34v-55.59h23.42c10.58,0,17.84,6.84,17.84,17.09s-6.75,15.34-13.84,16.25l14.25,22.25h-9.67l-13.25-21.42Zm3.58-26.84h-14v19.5h14c6,0,10.33-3.92,10.33-9.75s-4.33-9.75-10.33-9.75Z" fill="#fff"/><path d="M1363.58,287.38h-27.25l-4.5,11.5h-9.17l22.09-55.59h10.42l22.09,55.59h-9.17l-4.5-11.5Zm-24.83-7.42h22.42l-11.26-29.42-11.16,29.42Z" fill="#fff"/><path d="M1422.39,250.62h-17.25v-7.33h42.75v7.33h-17.16v48.26h-8.34v-48.26Z" fill="#fff"/><path d="M1458.25,243.29h8.42v33.59c0,9.5,5.26,15.59,15.01,15.59s14.92-6.08,14.92-15.59v-33.59h8.42v33.76c0,13.83-7.75,22.83-23.34,22.83s-23.42-9.08-23.42-22.75v-33.84Z" fill="#fff"/><path d="M1581.4,274.04h-30.75v24.84h-8.34v-55.59h8.34v23.34h30.75v-23.34h8.34v55.59h-8.34v-24.84Z" fill="#fff"/><path d="M1603.77,243.29h8.34v55.59h-8.34v-55.59Z" fill="#fff"/><path d="M1627.54,284.63c3.75,4.17,9.75,7.84,17.51,7.84,9,0,12.17-4.58,12.17-8.59,0-5.84-6.34-7.5-13.42-9.33-8.92-2.33-19.25-4.92-19.25-16.25,0-9.17,8.08-15.83,19.67-15.83,8.59,0,15.34,2.75,20.25,7.75l-4.83,6.17c-4.25-4.5-10.09-6.5-16.09-6.5s-10.42,3.17-10.42,7.84c0,5,6,6.58,12.92,8.33,9.08,2.42,19.67,5.25,19.67,17.09,0,8.67-5.99,16.75-21,16.75-9.92,0-17.17-3.58-21.92-8.83l4.75-6.42Z" fill="#fff"/><path d="M1689.99,250.62h-17.25v-7.33h42.75v7.33h-17.16v48.26h-8.34v-48.26Z" fill="#fff"/><path d="M1749.36,242.37c16.58,0,28,12.25,28,28.75s-11.42,28.75-28,28.75-28-12.25-28-28.75,11.41-28.75,28-28.75Zm0,7.42c-11.92,0-19.42,9.08-19.42,21.34s7.5,21.34,19.42,21.34,19.41-9.17,19.41-21.34-7.66-21.34-19.41-21.34Z" fill="#fff"/><path d="M1807.91,277.46h-10.42v21.42h-8.34v-55.59h23.42c10.58,0,17.84,6.84,17.84,17.09s-6.75,15.34-13.84,16.25l14.25,22.25h-9.67l-13.25-21.42Zm3.58-26.84h-14v19.5h14c6,0,10.33-3.92,10.33-9.75s-4.33-9.75-10.33-9.75Z" fill="#fff"/><path d="M1842.36,243.29h8.34v55.59h-8.34v-55.59Z" fill="#fff"/><path d="M1899.96,287.38h-27.25l-4.5,11.5h-9.17l22.09-55.59h10.42l22.09,55.59h-9.17l-4.5-11.5Zm-24.83-7.42h22.42l-11.26-29.42-11.16,29.42Z" fill="#fff"/></g><path d="M0,100.72C0,40.58,45.54,0,105.39,0c47,0,72.11,26.57,84.95,52.26l-43.21,20.44c-6.42-15.47-23.06-28.32-41.75-28.32-31.82,0-54.3,24.52-54.3,56.34s22.48,56.34,54.3,56.34c18.68,0,35.32-12.84,41.75-28.32l43.21,20.43c-12.55,25.11-37.95,52.26-84.95,52.26C45.54,201.43,0,160.56,0,100.72Z" fill="#fff"/><path d="M197.94,170.49l26.57-37.66c14.01,14.01,35.62,25.69,62.18,25.69,17.22,0,27.73-6.71,27.73-16.06,0-26.57-110.35-5.25-110.35-80.28C204.07,29.48,231.8,.29,281.72,.29c31.24,0,58.39,9.34,79.11,27.15l-27.44,35.91c-16.35-13.43-37.66-20.14-56.93-20.14-14.6,0-21.02,5.84-21.02,14.01,0,24.81,110.06,6.71,110.06,79.11,0,39.12-28.9,65.1-81.16,65.1-39.41,0-66.85-12.26-86.41-30.95Z" fill="#fff"/><path d="M382.53,119.11V3.21h51.09V117.36c0,23.06,13.72,39.7,41.16,39.7s40.87-16.64,40.87-39.7V3.21h50.8V118.82c0,48.46-29.49,82.62-91.67,82.62s-92.25-34.45-92.25-82.33Z" fill="#fff"/><path d="M666.71,197.93V3.21h50.21V197.93h-50.21Z" fill="#fff"/><path d="M922.74,197.93V71.23l-49.34,126.7h-22.19l-49.04-126.7v126.7h-50.21V3.21h69.77l40.58,105.68L903.18,3.21h69.77V197.93h-50.21Z" fill="#fff"/><path d="M1008,197.93V3.21h97.51c43.79,0,67.73,29.49,67.73,64.81s-23.94,64.52-67.73,64.52h-47.29v65.39h-50.21Zm114.15-129.91c0-13.43-9.93-21.02-23.36-21.02h-40.58v41.75h40.58c13.43,0,23.36-7.59,23.36-20.73Z" fill="#fff"/><path d="M1306.95,197.93l-9.63-28.03h-76.78l-9.63,28.03h-56.93L1227.26,3.21h63.06l73.57,194.72h-56.93Zm-48.17-145.09l-24.81,73.28h49.63l-24.81-73.28Z" fill="#fff"/><path d="M1358.93,100.72c0-60.14,45.54-100.72,105.39-100.72,47,0,72.11,26.57,84.95,52.26l-43.21,20.44c-6.42-15.47-23.06-28.32-41.75-28.32-31.82,0-54.3,24.52-54.3,56.34s22.48,56.34,54.3,56.34c18.68,0,35.32-12.84,41.75-28.32l43.21,20.43c-12.55,25.11-37.95,52.26-84.95,52.26-59.85,0-105.39-40.87-105.39-100.72Z" fill="#fff"/><path d="M1617.56,197.93V47h-54.59V3.21h159.1V47h-54.3V197.93h-50.21Z" fill="#fff"/><path d="M1723.36,100.72c0-59.26,44.67-100.72,104.22-100.72s103.93,41.45,103.93,100.72-44.37,100.72-103.93,100.72-104.22-41.45-104.22-100.72Zm157.06,0c0-31.82-20.73-56.34-52.84-56.34s-53.13,24.52-53.13,56.34,20.72,56.34,53.13,56.34,52.84-24.81,52.84-56.34Z" fill="#fff"/></svg>