<?xml version="1.0" encoding="utf-8"?>
<!-- Generator: Adobe Illustrator 26.2.1, SVG Export Plug-In . SVG Version: 6.00 Build 0)  -->
<svg version="1.1" id="Layer_1" xmlns="http://www.w3.org/2000/svg" xmlns:xlink="http://www.w3.org/1999/xlink" x="0px" y="0px"
	 viewBox="0 0 1010.8 1022.7" style="enable-background:new 0 0 1010.8 1022.7;" xml:space="preserve">
<style type="text/css">
	.st0{fill:#FFFFFF;}
</style>
<path class="st0" d="M835.4,873.5h-59.6c42.3-61.8,173.4-305-185.7-538.9c0.5-3.6,0.8-7.2,0.8-10.9c0-38.4-27.5-71.6-67.4-87.3
	l44.7-55.9l-22.7-12.7l68.1-85.5L504.2,26.9l-69.5,85.5l-35.5-15L151,413.8l24.1,13.9l-28.4,35.8l105,60.1l29.8-35.8l28.4,16.2
	l84.8-106.2c20.8,14.3,47.6,23,77,23c18.8,0,36.5-3.6,52.4-10c69,72.5,246.5,297.5-22.9,462.7H279.5c-12.6,0-22.9,8.4-22.9,18.6
	v75.9c0,10.2,10.3,18.6,22.9,18.6h555.8c12.6,0,22.9-8.4,22.9-18.6v-75.9C858.2,881.9,847.9,873.5,835.4,873.5z M471.6,354.5
	c-20.9,0-37.8-13.8-37.8-30.7s16.9-30.7,37.8-30.7c20.9,0,37.8,13.8,37.8,30.7S492.5,354.5,471.6,354.5z"/>
</svg>
