<?xml version="1.0" encoding="utf-8"?>
<!-- Generator: Adobe Illustrator 26.2.1, SVG Export Plug-In . SVG Version: 6.00 Build 0)  -->
<svg version="1.1" id="Layer_1" xmlns="http://www.w3.org/2000/svg" xmlns:xlink="http://www.w3.org/1999/xlink" x="0px" y="0px"
	 viewBox="0 0 1000 1000" style="enable-background:new 0 0 1000 1000;" xml:space="preserve">
<style type="text/css">
	.st0{fill:#FFFFFF;}
</style>
<g>
	<path class="st0" d="M817.6,508.9c0,0-85.7-41.5-218.9,47.7c0,0,59-234.5-28.6-386c0,0,37.9,217.5-2.9,354.7
		c-20.3-53.3-81.4-68.9-81.4-68.9s22.1,24.1,41.8,53.6c11.7,17.5,16.9,45.4,19.1,65.1c-53.8,99.1-106.3-4.7-108.1-47.7
		c-1.9-45.7,15.2-186.8-80-278.1c0,0,59,120.4,41.9,267.7c0,0-40-49.8-102.8-60.2S197,457,197,457s158,12.5,222.7,151.5
		s62.8,220,22.8,367.3h150.4c0,0-93.3-201.3-7.6-327.9S783.3,511,817.6,508.9z"/>
	<path class="st0" d="M415.3,219.5c0,0,32.7-50.6,1.2-112.8c-23.7-46.7-87.8-50.2-87.8-50.2S287.2,163.3,415.3,219.5z"/>
	<path class="st0" d="M283.4,674.1c0,0,32.2,16.2,63.7-11.9c23.7-21.1,18.4-64.5,18.4-64.5S300.6,581.9,283.4,674.1z"/>
	<path class="st0" d="M177.9,423.4c0,0-29.2-42.8-84.3-31.5c-41.4,8.5-61.3,64.8-61.3,64.8S101.3,522.6,177.9,423.4z"/>
	<path class="st0" d="M683.7,58.9c0,0-54.8,9.5-71.1,52.1c-21.7,56.6,10.8,96.7,10.8,96.7C728.6,146.4,683.7,58.9,683.7,58.9z"/>
	<path class="st0" d="M775.2,288.7c56.3-33.4,61.3-122.7,61.3-122.7S708.9,109,640,287.9C640,287.9,700.3,333,775.2,288.7z"/>
	<path class="st0" d="M731.3,579.1c0,0-7,76.4,61.8,122.6c51.7,34.7,122.9-4.2,122.9-4.2S901,554.4,731.3,579.1z"/>
	<path class="st0" d="M796,447.9c0,0,83.5,61.2,154.3-58.3c0,0-37.2-42.2-95.8-21.5C810.4,383.6,796,447.9,796,447.9z"/>
	<path class="st0" d="M501.8,385.1c0,0,68.4-53.9,2.6-149.4c0,0-41.3,19.7-43.3,76C459.6,354,501.8,385.1,501.8,385.1z"/>
	<path class="st0" d="M94.8,598.4c0,0,59.8,57.2,117.9,37.9c77.2-25.7,88.2-101.6,88.2-101.6C142.4,464.2,94.8,598.4,94.8,598.4z"/>
	<path class="st0" d="M345.5,403.7c0,0,6.3-79.5-66.1-128.6c-54.4-37-128.1,2.4-128.1,2.4S168.7,426.6,345.5,403.7z"/>
	<path class="st0" d="M671,438.3c0,0,32.2,16.2,63.7-11.9c23.7-21.1,18.4-64.5,18.4-64.5S688.2,346.2,671,438.3z"/>
	<path class="st0" d="M860.7,537.6c0,0,19,32.7,59.4,27.8c30.4-3.7,47.6-43.2,47.6-43.2S921.1,470.4,860.7,537.6z"/>
	<path class="st0" d="M540.9,82.9c2.1-33.3-30.5-58.7-30.5-58.7s-55,40.8-5.1,117.5C505.2,141.7,538.1,127.2,540.9,82.9z"/>
</g>
</svg>
